<?xml version="1.0" ?><svg xmlns="http://www.w3.org/2000/svg" xmlns:xlink="http://www.w3.org/1999/xlink" version="1.1" viewBox="0 0 512 512" style="enable-background:new 0 0 512 512;" xml:space="preserve"><g id="_x35_0_x2C__television_x2C__tv_table_x2C__furniture_and_household_x2C__tv_x2C__cabinet"><g><path style="fill:#3A98FF;" d="M381,211V51c0-5.522-4.478-10-10-10H141c-5.523,0-10,4.478-10,10v160c0,5.523,4.477,10,10,10h230    C376.522,221,381,216.523,381,211z M361,201H151V61h210V201z"/><path style="fill:#283954;" d="M143.5,331h-20c-5.522,0-10,4.478-10,10s4.478,10,10,10h20c5.523,0,10-4.478,10-10    S149.023,331,143.5,331z"/><path style="fill:#283954;" d="M123.5,431h20c5.523,0,10-4.478,10-10s-4.477-10-10-10h-20c-5.522,0-10,4.478-10,10    S117.978,431,123.5,431z"/><path style="fill:#283954;" d="M388.5,331h-20c-5.522,0-10,4.478-10,10s4.478,10,10,10h20c5.522,0,10-4.478,10-10    S394.022,331,388.5,331z"/><path style="fill:#283954;" d="M388.5,411h-20c-5.522,0-10,4.478-10,10s4.478,10,10,10h20c5.522,0,10-4.478,10-10    S394.022,411,388.5,411z"/><path style="fill:#283954;" d="M501,21h-50c-5.522,0-10,4.478-10,10v260H311v-30h70c22.056,0,40-17.944,40-40V41    c0-22.056-17.944-40-40-40H131c-22.056,0-40,17.944-40,40v180c0,22.056,17.944,40,40,40h70v30H71V31c0-5.522-4.478-10-10-10H11    C5.477,21,1,25.478,1,31c0,18.157,0,413.414,0,430c0,5.522,4.477,10,10,10h20v30c0,5.522,4.478,10,10,10h40    c4.589,0,8.589-3.123,9.701-7.574L98.808,471h314.385l8.106,32.426c1.112,4.451,5.112,7.574,9.701,7.574h40    c5.522,0,10-4.478,10-10v-30h20c5.522,0,10-4.478,10-10c0-16.435,0-411.825,0-430C511,25.478,506.522,21,501,21z M51,196H21v-20    h30V196z M51,156H21v-20h30V156z M21,311c15.751,0,214.278,0,225,0v60H21V311z M266,311c10.872,0,209.456,0,225,0v60H266V311z     M461,136h30v20h-30V136z M461,176h30v20h-30V176z M491,41v75h-30V41H491z M461,216h30v75h-30V216z M111,221V41    c0-11.028,8.972-20,20-20h250c11.028,0,20,8.972,20,20v180c0,11.028-8.972,20-20,20H131C119.972,241,111,232.028,111,221z     M221,261h70v30h-70V261z M21,291v-75h30v75H21z M51,41v75H21V41H51z M21,391h225v60H21V391z M73.192,491H51v-20h27.192    L73.192,491z M461,491h-22.192l-5-20H461V491z M266,451v-60h225v60H266z"/></g></g><g id="Layer_1"/></svg>