<?xml version="1.0" ?><svg xmlns="http://www.w3.org/2000/svg" xmlns:xlink="http://www.w3.org/1999/xlink" version="1.1" viewBox="0 0 512 512" style="enable-background:new 0 0 512 512;" xml:space="preserve"><g id="_x30_2_x2C__Table_x2C__study_x2C__LAMP_x2C__BOOK_x2C__desk"><g><path style="fill:#3A98FF;" d="M161,141v-20h10c6.307,0,11.043-5.779,9.806-11.961l-20-100C159.871,4.365,155.767,1,151,1H61    c-4.767,0-8.871,3.365-9.806,8.039l-20,100C29.957,115.224,34.695,121,41,121h55v80c0,5.523,4.478,10,10,10s10-4.477,10-10v-80h25    v20c0,5.523,4.477,10,10,10S161,146.523,161,141z M69.198,21h73.604l16,80H53.198L69.198,21z"/><path style="fill:#3A98FF;" d="M451,132.266V81c0-5.523-4.478-10-10-10H301c-22.056,0-40,17.944-40,40    c0,18.604,12.767,34.283,30,38.734V201c0,5.523,4.478,10,10,10s10-4.477,10-10v-50h20v50c0,5.523,4.478,10,10,10s10-4.477,10-10    v-50h90c11.028,0,20,8.972,20,20s-8.972,20-20,20c-5.522,0-10,4.477-10,10s4.478,10,10,10c22.056,0,40-17.944,40-40    C481,152.396,468.233,136.717,451,132.266z M301,131c-11.028,0-20-8.972-20-20s8.972-20,20-20h90v40H301z M411,131V91h20v40H411z"/><path style="fill:#3A98FF;" d="M178.5,291h-20c-5.523,0-10,4.478-10,10s4.477,10,10,10h20c5.523,0,10-4.478,10-10    S184.023,291,178.5,291z"/><path style="fill:#3A98FF;" d="M353.5,291h-20c-5.522,0-10,4.478-10,10s4.478,10,10,10h20c5.522,0,10-4.478,10-10    S359.022,291,353.5,291z"/><path style="fill:#283954;" d="M501,191H11c-5.523,0-10,4.477-10,10v60c0,5.522,4.477,10,10,10h20v230c0,5.522,4.478,10,10,10h40    c5.522,0,10-4.478,10-10V351c18.326,0,311.674,0,330,0v55.33c0,5.522,4.478,10,10,10s10-4.478,10-10V271h20v220h-20v-44.67    c0-5.523-4.478-10-10-10s-10,4.477-10,10V501c0,5.522,4.478,10,10,10h40c5.522,0,10-4.478,10-10V271h20c5.522,0,10-4.478,10-10    v-60C511,195.477,506.522,191,501,191z M71,491H51V271h20V491z M91,271h155v60H91V271z M421,331H266v-60h155V331z M491,251    c-22.385,0-446.403,0-470,0v-40h470V251z"/></g></g><g id="Layer_1"/></svg>