<?xml version="1.0" ?><svg xmlns="http://www.w3.org/2000/svg" xmlns:xlink="http://www.w3.org/1999/xlink" version="1.1" viewBox="0 0 512 512" style="enable-background:new 0 0 512 512;" xml:space="preserve"><g id="_x34_8_x2C__bookshelf_x2C__book_x2C__bookcase_x2C__library_x2C__furniture_and_household"><g><path style="fill:#3A98FF;" d="M166,211c5.523,0,10-4.477,10-10v-90h40v90c0,5.523,4.477,10,10,10s10-4.477,10-10v-90h40    c0,7.231,0,77.861,0,90c0,5.523,4.478,10,10,10s10-4.477,10-10v-70h40v70c0,5.523,4.478,10,10,10s10-4.477,10-10v-80    c0-5.522-4.478-10-10-10h-50v-10c0-5.522-4.478-10-10-10c-14.518,0-105.386,0-120,0c-5.523,0-10,4.478-10,10v100    C156,206.523,160.477,211,166,211z"/><path style="fill:#3A98FF;" d="M406.021,231h-60c-5.523,0-10,4.477-10,10v10h-40v-10c0-5.523-4.478-10-10-10h-60    c-5.522,0-10,4.477-10,10v10H175.98v-10c0-5.523-4.478-10-10-10h-60c-5.522,0-10,4.477-10,10v100c0,5.522,4.478,10,10,10    s10-4.478,10-10v-90h40c0,7.232,0,77.861,0,90c0,5.522,4.477,10,10,10c5.522,0,10-4.478,10-10v-70h40v70c0,5.522,4.477,10,10,10    c0.007,0,0.014-0.001,0.02-0.001s0.014,0.001,0.02,0.001c5.523,0,10-4.478,10-10v-90h40c0,7.232,0,77.861,0,90    c0,5.522,4.477,10,10,10c5.522,0,10-4.478,10-10v-70h40v70c0,5.522,4.477,10,10,10c5.522,0,10-4.478,10-10c0-7.945,0-78.812,0-90    h40v90c0,5.522,4.477,10,10,10c5.522,0,10-4.478,10-10V241C416.021,235.477,411.543,231,406.021,231z"/><path style="fill:#283954;" d="M470,1H41C18.944,1,1,18.944,1,41v390c0,22.056,17.944,40,40,40h10v30c0,5.522,4.478,10,10,10h40    c4.589,0,8.589-3.123,9.701-7.574L118.808,471h274.385l8.106,32.426c1.112,4.451,5.112,7.574,9.701,7.574h40    c5.522,0,10-4.478,10-10v-30h10c22.056,0,40-17.944,40-40V42C511,19.393,492.607,1,470,1z M41,21h429c11.579,0,21,9.421,21,21v289    h-30V61c0-5.522-4.478-10-10-10H61c-5.522,0-10,4.478-10,10v270H21V41C21,29.972,29.972,21,41,21z M71,331V211h370v120H71z     M441,191H71V71h370V191z M21,431v-80c15.751,0,214.278,0,225,0v100c-10.23,0-193.628,0-205,0C29.972,451,21,442.028,21,431z     M93.192,491H71v-20h27.192L93.192,491z M441,491h-22.192l-5-20H441V491z M471,451c-3.934,0-202.076,0-205,0V351    c10.872,0,209.456,0,225,0v80C491,442.028,482.028,451,471,451z"/><path style="fill:#283954;" d="M201,421c5.523,0,10-4.478,10-10v-20c0-5.522-4.477-10-10-10s-10,4.478-10,10v20    C191,416.522,195.477,421,201,421z"/><path style="fill:#283954;" d="M311,381c-5.522,0-10,4.478-10,10v20c0,5.522,4.478,10,10,10s10-4.478,10-10v-20    C321,385.478,316.522,381,311,381z"/></g></g><g id="Layer_1"/></svg>