<?xml version="1.0" ?><svg xmlns="http://www.w3.org/2000/svg" xmlns:xlink="http://www.w3.org/1999/xlink" version="1.1" viewBox="0 0 512 512" style="enable-background:new 0 0 512 512;" xml:space="preserve"><g id="_x30_7_x2C__dinner_x2C__dinner_table_x2C__party_x2C__dine_x2C__food_and_restaurant"><g><path style="fill:#3A98FF;" d="M276,231c-5.522,0-10,4.477-10,10v210h-20V241c0-5.523-4.477-10-10-10s-10,4.477-10,10v220    c0,5.522,4.477,10,10,10h40c5.522,0,10-4.478,10-10V241C286,235.477,281.522,231,276,231z"/><path style="fill:#3A98FF;" d="M161,41h-40c-5.522,0-10,4.478-10,10v40c0,13.036,8.361,24.152,20,28.28V151    c0,5.523,4.477,10,10,10s10-4.477,10-10v-31.72c11.639-4.128,20-15.243,20-28.28V51C171,45.478,166.523,41,161,41z M151,91    c0,5.514-4.486,10-10,10s-10-4.486-10-10V61h20V91z"/><path style="fill:#3A98FF;" d="M391,41h-40c-5.522,0-10,4.478-10,10v40c0,13.036,8.361,24.152,20,28.28V151    c0,5.523,4.478,10,10,10s10-4.477,10-10v-31.72c11.639-4.128,20-15.243,20-28.28V51C401,45.478,396.522,41,391,41z M381,91    c0,5.514-4.486,10-10,10s-10-4.486-10-10V61h20V91z"/><path style="fill:#283954;" d="M501,61h-20c-22.056,0-40,17.944-40,40v170h-90c-22.056,0-40,17.944-40,40    c0,22.793,0,127.315,0,150c0,5.522,4.478,10,10,10h40c5.522,0,10-4.478,10-10V341h80v120c0,5.522,4.478,10,10,10h40    c5.522,0,10-4.478,10-10c0-15.898,0-374.087,0-390C511,65.478,506.522,61,501,61z M331,311c0-11.028,8.972-20,20-20h100    c5.522,0,10-4.478,10-10V101c0-11.028,8.972-20,20-20h10v240c-17.64,0-140.222,0-160,0V311z M351,451h-20V341h20V451z M491,451    h-20V341h20V451z"/><path style="fill:#283954;" d="M161,271H71V101c0-22.056-17.944-40-40-40H11C5.477,61,1,65.478,1,71c0,15.924,0,374.122,0,390    c0,5.522,4.477,10,10,10h40c5.522,0,10-4.478,10-10V341h80v120c0,5.522,4.477,10,10,10h40c5.523,0,10-4.478,10-10    c0-22.685,0-127.207,0-150C201,288.944,183.056,271,161,271z M21,81h10c11.028,0,20,8.972,20,20v180c0,5.522,4.478,10,10,10h100    c11.028,0,20,8.972,20,20v10c-19.697,0-142.048,0-160,0V81z M41,451H21V341h20V451z M181,451h-20V341h20V451z"/><path style="fill:#283954;" d="M101,251h310c5.522,0,10-4.477,10-10v-60c0-22.056-17.944-40-40-40h-55    c0-35.202-26.124-64.406-60-69.274V61c0-5.522-4.478-10-10-10c-5.523,0-10,4.478-10,10v10.726c-33.876,4.869-60,34.073-60,69.274    h-55c-22.056,0-40,17.944-40,40v60C91,246.523,95.478,251,101,251z M256,91c27.57,0,50,22.43,50,50H206    C206,113.43,228.43,91,256,91z M111,181c0-11.028,8.972-20,20-20c6.61,0,243.216,0,250,0c11.028,0,20,8.972,20,20v50H111V181z"/></g></g><g id="Layer_1"/></svg>