<?xml version="1.0" ?><svg xmlns="http://www.w3.org/2000/svg" xmlns:xlink="http://www.w3.org/1999/xlink" version="1.1" viewBox="0 0 512 512" style="enable-background:new 0 0 512 512;" xml:space="preserve"><g id="_x32_4_x2C__bathroom_x2C__wc_x2C__washroom_x2C__toilet_x2C__seat"><g><path style="fill:#283954;" d="M411,116c5.522,0,10-4.478,10-10V51c0-5.522-4.478-10-10-10s-10,4.478-10,10v55    C401,111.522,405.478,116,411,116z"/><path style="fill:#283954;" d="M129,211h32v30c0,5.523,4.477,10,10,10s10-4.477,10-10v-30h150v30c0,5.523,4.478,10,10,10    s10-4.477,10-10v-30h32c20.953,0,38-17.047,38-38v-27c0-5.523-4.478-10-10-10s-10,4.477-10,10v27c0,9.925-8.075,18-18,18H129    c-9.925,0-18-8.075-18-18V51c0-5.522-4.478-10-10-10s-10,4.478-10,10v122C91,193.953,108.047,211,129,211z"/><path style="fill:#283954;" d="M441,281c0-5.522-4.478-10-10-10s-10,4.478-10,10c0,82.71-67.29,150-150,150h-30    c-82.71,0-150-67.29-150-150c0-5.522-4.478-10-10-10s-10,4.478-10,10c0,75.796,49.866,140.157,118.511,162.022l-27.409,53.413    C158.695,503.079,163.524,511,171,511h170c7.467,0,12.309-7.914,8.897-14.565l-27.408-53.413C391.134,421.157,441,356.796,441,281    z M324.629,491H187.371l22.042-42.955C219.652,449.977,230.208,451,241,451h30c10.792,0,21.348-1.023,31.587-2.955L324.629,491z"/><path style="fill:#283954;" d="M141,101h30c5.523,0,10-4.478,10-10s-4.477-10-10-10h-30c-5.523,0-10,4.478-10,10    S135.477,101,141,101z"/><path style="fill:#3A98FF;" d="M391,96c-16.542,0-30,13.458-30,30s13.458,30,30,30h40c16.542,0,30-13.458,30-30s-13.458-30-30-30    H391z M441,126c0,5.514-4.486,10-10,10h-40c-5.514,0-10-4.486-10-10s4.486-10,10-10h40C436.514,116,441,120.486,441,126z"/><path style="fill:#3A98FF;" d="M411,231H101c-27.57,0-50,22.43-50,50c0,5.522,4.478,10,10,10h390c5.522,0,10-4.478,10-10    C461,253.43,438.57,231,411,231z M72.714,271c4.127-11.641,15.249-20,28.286-20h310c13.037,0,24.159,8.359,28.286,20H72.714z"/><path style="fill:#3A98FF;" d="M91,61h330c16.542,0,30-13.458,30-30S437.542,1,421,1H91C74.458,1,61,14.458,61,31S74.458,61,91,61    z M91,21h330c5.514,0,10,4.486,10,10s-4.486,10-10,10H91c-5.514,0-10-4.486-10-10S85.486,21,91,21z"/></g></g><g id="Layer_1"/></svg>