<?xml version="1.0" ?><svg xmlns="http://www.w3.org/2000/svg" xmlns:xlink="http://www.w3.org/1999/xlink" version="1.1" viewBox="0 0 512 512" style="enable-background:new 0 0 512 512;" xml:space="preserve"><g id="_x34_6_x2C__candelabra_x2C__furniture_and_household_x2C__miscellaneous_x2C__illumination_x2C__candle"><g><path style="fill:#283954;" d="M246,79.278v31.72c0,5.522,4.477,10,10,10c5.522,0,10-4.478,10-10v-31.72    c11.639-4.128,20-15.244,20-28.28c0-12.784-15.226-36.206-21.772-45.684c-3.972-5.751-12.484-5.75-16.455,0    C241.226,14.792,226,38.214,226,50.998C226,64.034,234.361,75.15,246,79.278z M256.002,29.531    c5.756,9.696,9.913,18.406,9.998,21.475c-0.004,5.511-4.488,9.992-10,9.992c-5.514,0-10-4.486-10-9.988    C246.081,47.952,250.241,39.238,256.002,29.531z"/><path style="fill:#3A98FF;" d="M286,100.998h-60c-5.523,0-10,4.478-10,10v170c0,5.523,4.477,10,10,10s10-4.477,10-10v-160h40v160    c0,5.523,4.478,10,10,10s10-4.477,10-10v-170C296,105.476,291.522,100.998,286,100.998z"/><path style="fill:#283954;" d="M501,300.998h-25v-160c0-5.523-4.478-10-10-10h-20v-21.72c11.639-4.128,20-15.244,20-28.28    c0-12.784-15.226-36.206-21.772-45.684c-3.972-5.751-12.484-5.75-16.455,0C421.226,44.792,406,68.214,406,80.998    c0,13.036,8.361,24.152,20,28.28v21.72h-20c-5.522,0-10,4.477-10,10v160h-25c-5.522,0-10,4.478-10,10c0,27.57,22.43,50,50,50    h13.734c-4.452,17.232-20.13,30-38.734,30H266v-60h15c27.57,0,50-22.43,50-50c0-5.522-4.478-10-10-10H191c-5.523,0-10,4.478-10,10    c0,27.57,22.43,50,50,50h15v60H126c-18.604,0-34.282-12.768-38.734-30H101c27.57,0,50-22.43,50-50c0-5.522-4.478-10-10-10h-25    v-160c0-5.523-4.478-10-10-10H86v-21.72c11.639-4.128,20-15.244,20-28.28c0-12.784-15.226-36.206-21.773-45.684    c-3.972-5.751-12.484-5.75-16.455,0C61.226,44.792,46,68.214,46,80.998c0,13.036,8.361,24.152,20,28.28v21.72H46    c-5.523,0-10,4.477-10,10v160H11c-5.523,0-10,4.478-10,10c0,27.57,22.43,50,50,50h15.849c4.777,28.339,29.475,50,59.151,50h120v30    h-75c-5.523,0-10,4.478-10,10v40h-10c-5.523,0-10,4.478-10,10c0,5.523,4.477,10,10,10c19.368,0,201.065,0,210,0    c5.522,0,10-4.477,10-10c0-5.522-4.478-10-10-10h-10v-40c0-5.522-4.478-10-10-10h-75v-30h120c29.676,0,54.374-21.661,59.151-50    H461c27.57,0,50-22.43,50-50C511,305.476,506.522,300.998,501,300.998z M436.002,59.531c5.756,9.696,9.913,18.406,9.998,21.475    c-0.004,5.511-4.488,9.992-10,9.992c-5.514,0-10-4.486-10-9.988C426.081,77.952,430.241,69.238,436.002,59.531z M202.714,290.998    h106.572c-4.127,11.641-15.249,20-28.286,20h-50C217.963,310.998,206.841,302.639,202.714,290.998z M76.002,59.531    c5.756,9.696,9.913,18.406,9.998,21.475c-0.004,5.511-4.488,9.992-10,9.992c-5.514,0-10-4.486-10-9.988    C66.081,77.952,70.241,69.238,76.002,59.531z M56,150.998h40v150H56V150.998z M22.714,320.998h106.572    c-4.127,11.641-15.249,20-28.286,20H51C37.963,340.998,26.841,332.639,22.714,320.998z M331,490.998H181v-30h150V490.998z     M416,150.998h40v150h-40V150.998z M461,340.998h-50c-13.037,0-24.159-8.359-28.286-20h106.572    C485.159,332.639,474.037,340.998,461,340.998z"/></g></g><g id="Layer_1"/></svg>