<?xml version="1.0" ?><svg xmlns="http://www.w3.org/2000/svg" xmlns:xlink="http://www.w3.org/1999/xlink" version="1.1" viewBox="0 0 512 512" style="enable-background:new 0 0 512 512;" xml:space="preserve"><g id="_x30_9_x2C__doorknob_x2C__door_handle_x2C__handle_x2C__door_lock_x2C__door_knob"><g><path style="fill:#3A98FF;" d="M269.25,161c5.522,0,10-4.477,10-10V82.32c0-2.652-1.054-5.195-2.929-7.071l-31.32-31.32    C243.125,42.054,240.582,41,237.93,41H120.57c-2.652,0-5.195,1.054-7.071,2.929l-31.32,31.32    c-1.875,1.876-2.929,4.419-2.929,7.071V429.68c0,2.652,1.054,5.195,2.929,7.071l31.32,31.32c1.876,1.875,4.419,2.929,7.071,2.929    H237.93c2.652,0,5.195-1.054,7.071-2.929l31.32-31.32c1.875-1.876,2.929-4.419,2.929-7.071V191c0-5.523-4.478-10-10-10    s-10,4.477-10,10v234.537L233.787,451H124.713L99.25,425.537V86.463L124.713,61h109.074l25.463,25.463V151    C259.25,156.523,263.728,161,269.25,161z"/><path style="fill:#3A98FF;" d="M159.25,401h40c5.523,0,10-4.478,10-10v-33.554c6.401-7.262,10-16.669,10-26.446    c0-22.056-17.944-40-40-40s-40,17.944-40,40c0,9.777,3.599,19.185,10,26.446V391C149.25,396.522,153.727,401,159.25,401z     M179.25,311c11.028,0,20,8.972,20,20c0,5.679-2.43,11.107-6.665,14.895c-2.122,1.897-3.335,4.608-3.335,7.455V381h-20v-27.65    c0-2.847-1.213-5.558-3.335-7.455c-4.235-3.787-6.665-9.216-6.665-14.895C159.25,319.972,168.222,311,179.25,311z"/><path style="fill:#283954;" d="M462.75,141h-143.5V65.75c0-2.652-1.054-5.195-2.929-7.071l-54.75-54.75    C259.695,2.054,257.152,1,254.5,1H104c-2.652,0-5.195,1.054-7.071,2.929l-54.75,54.75c-1.875,1.876-2.929,4.419-2.929,7.071v380.5    c0,2.652,1.054,5.195,2.929,7.071l54.75,54.75C98.805,509.946,101.348,511,104,511h150.5c2.652,0,5.195-1.054,7.071-2.929    l54.75-54.75c1.875-1.876,2.929-4.419,2.929-7.071V201h143.5c5.522,0,10-4.477,10-10v-40C472.75,145.477,468.272,141,462.75,141z     M299.25,442.107L250.357,491H108.143L59.25,442.107V69.893L108.143,21h142.215l48.893,48.893V141h-65v-30c0-5.522-4.477-10-10-10    h-90c-5.523,0-10,4.478-10,10v120c0,5.523,4.477,10,10,10h90c5.523,0,10-4.477,10-10v-30h65V442.107z M199.75,141    c-16.542,0-30,13.458-30,30s13.458,30,30,30h14.5v20h-70V121h70v20H199.75z M452.75,181h-253c-5.514,0-10-4.486-10-10    s4.486-10,10-10h253V181z"/></g></g><g id="Layer_1"/></svg>