<?xml version="1.0" ?><svg xmlns="http://www.w3.org/2000/svg" xmlns:xlink="http://www.w3.org/1999/xlink" version="1.1" viewBox="0 0 512 512" style="enable-background:new 0 0 512 512;" xml:space="preserve"><g id="_x32_8_x2C__sofa_x2C__armchair_x2C__furniture_x2C__livingroom_x2C__couch"><g><path style="fill:#3A98FF;" d="M411.25,243.5h-125.5c-11.83,0-22.462,5.2-29.75,13.428c-7.288-8.228-17.92-13.428-29.75-13.428    h-125.5C78.832,243.5,61,261.332,61,283.25v50.25c0,5.522,4.478,10,10,10s10-4.478,10-10v-50.25c0-10.891,8.859-19.75,19.75-19.75    h125.5c10.891,0,19.75,8.859,19.75,19.75v50.25c0,5.522,4.477,10,10,10c5.522,0,10-4.478,10-10v-50.25    c0-10.891,8.859-19.75,19.75-19.75h125.5c10.891,0,19.75,8.859,19.75,19.75v50.25c0,5.522,4.478,10,10,10s10-4.478,10-10v-50.25    C451,261.332,433.168,243.5,411.25,243.5z"/><path style="fill:#283954;" d="M481,204.77V108.5c0-22.06-17.94-40-40-40H286c-11.94,0-22.66,5.26-30,13.58    c-7.34-8.32-18.06-13.58-30-13.58H71c-22.06,0-40,17.94-40,40v96.27C13.77,209.22,1,224.9,1,243.5v120c0,22.06,17.94,40,40,40h20    v30c0,5.52,4.48,10,10,10h40c4.59,0,8.59-3.12,9.7-7.57l8.11-32.43h254.38l8.11,32.43c1.11,4.45,5.11,7.57,9.7,7.57h40    c5.52,0,10-4.48,10-10v-30h20c22.06,0,40-17.94,40-40v-120C511,224.9,498.23,209.22,481,204.77z M51,108.5c0-11.03,8.97-20,20-20    h155c11.03,0,20,8.97,20,20v140.28c3.76,2.16,7.14,4.92,10,8.15c2.86-3.23,6.24-5.99,10-8.15V108.5c0-11.03,8.97-20,20-20h155    c11.03,0,20,8.97,20,20v96.27c-17.23,4.45-30,20.13-30,38.73v80H81v-80c0-18.6-12.77-34.28-30-38.73V108.5z M103.19,423.5H81v-20    h27.19L103.19,423.5z M431,423.5h-22.19l-5-20H431V423.5z M491,363.5c0,11.03-8.97,20-20,20H41c-11.03,0-20-8.97-20-20v-120    c0-11.03,8.97-20,20-20s20,8.97,20,20v90c0,5.52,4.48,10,10,10h370c5.52,0,10-4.48,10-10v-90c0-11.03,8.97-20,20-20s20,8.97,20,20    V363.5z"/><path style="fill:#3A98FF;" d="M391.429,185.571c3.908,3.906,10.236,3.904,14.143,0l5.429-5.429l5.429,5.429    c3.908,3.906,10.236,3.904,14.143,0c3.905-3.905,3.905-10.237,0-14.143L425.143,166l5.429-5.429    c3.905-3.905,3.905-10.237,0-14.143c-3.906-3.904-10.236-3.904-14.143,0L411,151.857l-5.429-5.429    c-3.906-3.904-10.236-3.904-14.143,0c-3.905,3.905-3.905,10.237,0,14.143l5.429,5.429l-5.429,5.429    C387.523,175.334,387.523,181.666,391.429,185.571z"/><path style="fill:#3A98FF;" d="M296.429,185.571c3.908,3.906,10.236,3.904,14.143,0l5.429-5.429l5.429,5.429    c3.908,3.906,10.236,3.904,14.143,0c3.905-3.905,3.905-10.237,0-14.143L330.143,166l5.429-5.429    c3.905-3.905,3.905-10.237,0-14.143c-3.906-3.904-10.236-3.904-14.143,0L316,151.857l-5.429-5.429    c-3.906-3.904-10.236-3.904-14.143,0c-3.905,3.905-3.905,10.237,0,14.143l5.429,5.429l-5.429,5.429    C292.523,175.334,292.523,181.666,296.429,185.571z"/><path style="fill:#3A98FF;" d="M178.929,185.571c3.908,3.906,10.236,3.904,14.143,0l5.429-5.429l5.429,5.429    c3.908,3.906,10.236,3.904,14.143,0c3.905-3.905,3.905-10.237,0-14.143L212.643,166l5.429-5.429    c3.905-3.905,3.905-10.237,0-14.143c-3.906-3.904-10.236-3.904-14.143,0l-5.429,5.429l-5.429-5.429    c-3.906-3.904-10.236-3.904-14.143,0c-3.905,3.905-3.905,10.237,0,14.143l5.429,5.429l-5.429,5.429    C175.023,175.334,175.023,181.666,178.929,185.571z"/><path style="fill:#3A98FF;" d="M83.929,185.571c3.907,3.906,10.236,3.904,14.143,0l5.429-5.429l5.429,5.429    c3.907,3.906,10.236,3.904,14.143,0c3.905-3.905,3.905-10.237,0-14.143L117.643,166l5.429-5.429    c3.905-3.905,3.905-10.237,0-14.143c-3.906-3.904-10.236-3.904-14.143,0l-5.429,5.429l-5.429-5.429    c-3.906-3.904-10.236-3.904-14.143,0c-3.905,3.905-3.905,10.237,0,14.143L89.357,166l-5.429,5.429    C80.023,175.334,80.023,181.666,83.929,185.571z"/></g></g><g id="Layer_1"/></svg>