<?xml version="1.0" ?><svg xmlns="http://www.w3.org/2000/svg" xmlns:xlink="http://www.w3.org/1999/xlink" version="1.1" viewBox="0 0 512 512" style="enable-background:new 0 0 512 512;" xml:space="preserve"><g id="_x33_3_x2C__woofer_x2C__music_and_multimedia_x2C__subwoofer_x2C__loudspeaker_x2C__electronics"><g><path style="fill:#3A98FF;" d="M255.987,241c-57.898,0-105,47.103-105,105s47.102,105,105,105s105-47.103,105-105    S313.884,241,255.987,241z M255.987,431c-46.869,0-85-38.131-85-85s38.131-85,85-85s85,38.131,85,85S302.856,431,255.987,431z"/><path style="fill:#3A98FF;" d="M255.987,283.223c-34.615,0-62.777,28.162-62.777,62.777s28.162,62.777,62.777,62.777    s62.777-28.162,62.777-62.777S290.602,283.223,255.987,283.223z M255.987,388.777c-23.588,0-42.777-19.189-42.777-42.777    s19.189-42.777,42.777-42.777s42.777,19.189,42.777,42.777S279.574,388.777,255.987,388.777z"/><path style="fill:#3A98FF;" d="M255.987,161c16.542,0,30-13.458,30-30s-13.458-30-30-30s-30,13.458-30,30S239.445,161,255.987,161    z M255.987,121c5.514,0,10,4.486,10,10s-4.486,10-10,10c-5.514,0-10-4.486-10-10S250.473,121,255.987,121z"/><path style="fill:#3A98FF;" d="M255.987,201c38.598,0,70-31.402,70-70s-31.402-70-70-70s-70,31.402-70,70S217.389,201,255.987,201    z M255.987,81c27.57,0,50,22.43,50,50s-22.43,50-50,50s-50-22.43-50-50S228.416,81,255.987,81z"/><path style="fill:#283954;" d="M370.987,1h-230c-22.056,0-40,17.944-40,40v430c0,22.056,17.944,40,40,40h230    c22.056,0,40-17.944,40-40V41C410.987,18.944,393.042,1,370.987,1z M390.987,471c0,11.028-8.972,20-20,20h-230    c-11.028,0-20-8.972-20-20V41c0-11.028,8.972-20,20-20h230c11.028,0,20,8.972,20,20V471z"/><path style="fill:#283954;" d="M447.555,199.432c-3.906-3.904-10.236-3.904-14.143,0c-3.905,3.905-3.905,10.237,0,14.143    c23.448,23.447,23.452,61.402,0,84.852c-3.905,3.905-3.905,10.237,0,14.143c3.908,3.906,10.236,3.904,14.143,0    C478.82,281.303,478.822,230.698,447.555,199.432z"/><path style="fill:#283954;" d="M475.839,171.148c-3.906-3.904-10.236-3.904-14.142,0c-3.905,3.905-3.905,10.237,0,14.142    c39.081,39.079,39.085,102.336,0,141.42c-3.905,3.905-3.905,10.237,0,14.143c3.907,3.906,10.236,3.904,14.142,0    C522.735,293.957,522.741,218.05,475.839,171.148z"/><path style="fill:#283954;" d="M78.561,199.432c-3.904-3.902-10.234-3.904-14.143,0C49.309,214.541,40.987,234.631,40.987,256    s8.322,41.459,23.432,56.568c3.908,3.906,10.236,3.904,14.143,0c3.905-3.905,3.905-10.237,0-14.143    C67.228,287.094,60.987,272.026,60.987,256s6.241-31.094,17.574-42.426C82.466,209.669,82.466,203.337,78.561,199.432z"/><path style="fill:#283954;" d="M20.987,256c0-26.711,10.402-51.823,29.29-70.71c3.905-3.905,3.905-10.237,0-14.142    c-3.905-3.903-10.235-3.904-14.143,0C13.469,193.813,0.987,223.947,0.987,256s12.482,62.188,35.147,84.853    c3.907,3.906,10.236,3.904,14.143,0c3.905-3.905,3.905-10.237,0-14.143C31.389,307.823,20.987,282.711,20.987,256z"/><circle style="fill:#283954;" cx="150.987" cy="51.004" r="10"/><circle style="fill:#283954;" cx="150.987" cy="461.002" r="10"/><circle style="fill:#283954;" cx="360.987" cy="461.002" r="10"/><circle style="fill:#283954;" cx="360.987" cy="51.004" r="10"/></g></g><g id="Layer_1"/></svg>