<?xml version="1.0" ?><svg xmlns="http://www.w3.org/2000/svg" xmlns:xlink="http://www.w3.org/1999/xlink" version="1.1" viewBox="0 0 512 512" style="enable-background:new 0 0 512 512;" xml:space="preserve"><g id="_x31_9_x2C__laundry_x2C__washing_machine_x2C__household_x2C__fashion_x2C__appliances"><g><path style="fill:#3A98FF;" d="M256,162c-63.136,0-114.5,51.364-114.5,114.5S192.864,391,256,391s114.5-51.364,114.5-114.5    S319.136,162,256,162z M256,371c-52.107,0-94.5-42.393-94.5-94.5S203.893,182,256,182s94.5,42.393,94.5,94.5S308.107,371,256,371z    "/><path style="fill:#3A98FF;" d="M330.25,276.5c0-40.941-33.309-74.25-74.25-74.25c-41.075,0-74.25,33.494-74.25,74.25    c0,40.941,33.309,74.25,74.25,74.25C297.103,350.75,330.25,317.228,330.25,276.5z M256,222.25    c27.643,0,50.508,20.788,53.821,47.549c-3.799-0.786-26.997-13.489-57.176-2.72c-24.114,8.589-41.765-2.898-49.048-4.602    C209.796,239.34,230.936,222.25,256,222.25z M256,330.75c-27.643,0-50.507-20.788-53.821-47.548    c3.632,0.741,26.997,13.465,57.181,2.717c24.08-8.592,41.738,2.899,49.041,4.606C302.203,313.66,281.064,330.75,256,330.75z"/><path style="fill:#283954;" d="M456,1H56c-5.522,0-10,4.477-10,10v450c0,5.522,4.478,10,10,10h40v30c0,5.522,4.478,10,10,10h40    c4.589,0,8.589-3.123,9.701-7.574L163.808,471h184.385l8.106,32.426c1.112,4.451,5.112,7.574,9.701,7.574h40    c5.522,0,10-4.478,10-10v-30h40c5.522,0,10-4.478,10-10V11C466,5.477,461.522,1,456,1z M66,141h380v270H66V141z M446,121H346V21    h100V121z M326,21v100H66V21H326z M138.192,491H116v-20h27.192L138.192,491z M396,491h-22.192l-5-20H396V491z M66,451v-20h380v20    C390.169,451,116.534,451,66,451z"/><path style="fill:#283954;" d="M116,101c16.542,0,30-13.458,30-30s-13.458-30-30-30S86,54.458,86,71S99.458,101,116,101z M116,61    c5.514,0,10,4.486,10,10s-4.486,10-10,10s-10-4.486-10-10S110.486,61,116,61z"/><path style="fill:#283954;" d="M196,101c16.542,0,30-13.458,30-30s-13.458-30-30-30s-30,13.458-30,30S179.458,101,196,101z     M196,61c5.514,0,10,4.486,10,10s-4.486,10-10,10s-10-4.486-10-10S190.486,61,196,61z"/><path style="fill:#283954;" d="M276,101c16.542,0,30-13.458,30-30s-13.458-30-30-30s-30,13.458-30,30S259.458,101,276,101z     M276,61c5.514,0,10,4.486,10,10s-4.486,10-10,10s-10-4.486-10-10S270.486,61,276,61z"/></g></g><g id="Layer_1"/></svg>