<?xml version="1.0" ?><svg xmlns="http://www.w3.org/2000/svg" xmlns:xlink="http://www.w3.org/1999/xlink" version="1.1" viewBox="0 0 512 512" style="enable-background:new 0 0 512 512;" xml:space="preserve"><g id="_x31_8_x2C__router_x2C__modem_x2C__wifi_router_x2C__computer_x2C__access_point"><g><path style="fill:#3A98FF;" d="M81,251.93c5.522,0,10-4.478,10-10V58.5c0-5.514,4.486-10,10-10s10,4.486,10,10v183.43    c0,5.522,4.478,10,10,10s10-4.478,10-10V58.5c0-16.542-13.458-30-30-30s-30,13.458-30,30v183.43    C71,247.452,75.478,251.93,81,251.93z"/><path style="fill:#3A98FF;" d="M411,28.5c-16.542,0-30,13.458-30,30v183.43c0,5.522,4.478,10,10,10s10-4.478,10-10V58.5    c0-5.514,4.486-10,10-10s10,4.486,10,10v183.43c0,5.522,4.478,10,10,10s10-4.478,10-10V58.5C441,41.958,427.542,28.5,411,28.5z"/><path style="fill:#3A98FF;" d="M221,328.5H51c-5.522,0-10,4.478-10,10v50c0,5.522,4.478,10,10,10h170c5.523,0,10-4.478,10-10v-50    C231,332.978,226.523,328.5,221,328.5z M211,378.5H61v-30h150V378.5z"/><path style="fill:#283954;" d="M480.407,289.469C475.916,255.228,446.771,228.5,411,228.5c-35.281,0-64.327,26.048-69.268,60    H170.268c-3.056-21.002-15.598-39.831-34.259-50.625c-21.582-12.489-48.407-12.506-70.016-0.001    c-18.95,10.96-31.595,30.204-34.4,51.595C13.632,293.232,1,307.681,1,326v72.5c0,22.056,17.944,40,40,40v35    c0,5.522,4.478,10,10,10h40c3.952,0,7.533-2.327,9.138-5.939l17.361-39.061h277.003l17.361,39.061    c1.604,3.611,5.186,5.939,9.138,5.939h40c5.522,0,10-4.478,10-10v-35c22.056,0,40-17.944,40-40V326    C511,307.681,498.368,293.232,480.407,289.469z M411,248.5c24.242,0,44.283,17.181,48.976,40h-97.953    C366.727,265.63,386.806,248.5,411,248.5z M101,248.5c24.242,0,44.283,17.181,48.976,40H52.024    C56.727,265.63,76.806,248.5,101,248.5z M84.501,463.5H61v-25h34.612L84.501,463.5z M451,463.5h-23.501l-11.111-25H451V463.5z     M491,398.5c0,11.028-8.972,20-20,20c-24.493,0-415.953,0-430,0c-11.028,0-20-8.972-20-20V326c0-12.023,10.367-17.5,20-17.5h430    c9.633,0,20,5.477,20,17.5V398.5z"/><path style="fill:#283954;" d="M227.716,240.216c-3.905,3.905-3.905,10.237,0,14.143c3.906,3.904,10.236,3.904,14.143,0    c7.797-7.799,20.486-7.799,28.283,0c3.908,3.905,10.236,3.904,14.143,0c3.905-3.905,3.905-10.237,0-14.143    C268.689,224.62,243.311,224.62,227.716,240.216z"/><path style="fill:#283954;" d="M312.568,226.074c3.905-3.905,3.905-10.237,0-14.143c-31.266-31.265-81.87-31.267-113.137,0    c-3.905,3.905-3.905,10.237,0,14.143c3.906,3.904,10.236,3.904,14.143,0c23.447-23.448,61.402-23.452,84.852,0    C302.333,229.98,308.662,229.979,312.568,226.074z"/><path style="fill:#283954;" d="M185.29,197.79c39.079-39.081,102.336-39.085,141.42,0c3.907,3.906,10.236,3.905,14.143,0    c3.905-3.905,3.905-10.237,0-14.142c-46.896-46.896-122.803-46.902-169.705,0c-3.905,3.905-3.905,10.237,0,14.142    C175.054,201.694,181.384,201.694,185.29,197.79z"/><path style="fill:#283954;" d="M441,333.5c-16.542,0-30,13.458-30,30s13.458,30,30,30s30-13.458,30-30S457.542,333.5,441,333.5z     M441,373.5c-5.514,0-10-4.486-10-10s4.486-10,10-10s10,4.486,10,10S446.514,373.5,441,373.5z"/><path style="fill:#283954;" d="M361,333.5c-16.542,0-30,13.458-30,30s13.458,30,30,30s30-13.458,30-30S377.542,333.5,361,333.5z     M361,373.5c-5.514,0-10-4.486-10-10s4.486-10,10-10s10,4.486,10,10S366.514,373.5,361,373.5z"/><path style="fill:#283954;" d="M281,333.5c-16.542,0-30,13.458-30,30s13.458,30,30,30s30-13.458,30-30S297.542,333.5,281,333.5z     M281,373.5c-5.514,0-10-4.486-10-10s4.486-10,10-10s10,4.486,10,10S286.514,373.5,281,373.5z"/></g></g><g id="Layer_1"/></svg>