<?xml version="1.0" ?><svg xmlns="http://www.w3.org/2000/svg" xmlns:xlink="http://www.w3.org/1999/xlink" version="1.1" viewBox="0 0 512 512" style="enable-background:new 0 0 512 512;" xml:space="preserve"><g id="_x33_4_x2C__hairdryer_x2C__hair_salon_x2C__hairstyle_x2C__salon_x2C__hair_dryer"><g><path style="fill:#3A98FF;" d="M197,323.268h-19.89c-5.522,0-10,4.478-10,10c0,5.522,4.478,10,10,10H197c7.72,0,14,6.28,14,14v2    c0,7.72-6.28,14-14,14h-12.67c-5.522,0-10,4.478-10,10c0,5.522,4.478,10,10,10H197c18.748,0,34-15.252,34-34v-2    C231,338.52,215.748,323.268,197,323.268z"/><path style="fill:#3A98FF;" d="M251,152.099c0-55.141-44.859-100-100-100s-100,44.859-100,100c0,55.141,44.859,100,100,100    S251,207.239,251,152.099z M151,232.099c-44.112,0-80-35.888-80-80s35.888-80,80-80s80,35.888,80,80S195.112,232.099,151,232.099z    "/><path style="fill:#3A98FF;" d="M151,102.099c-27.57,0-50,22.43-50,50c0,27.57,22.43,50,50,50s50-22.43,50-50    C201,124.528,178.57,102.099,151,102.099z M151,182.099c-16.542,0-30-13.458-30-30c0-16.542,13.458-30,30-30s30,13.458,30,30    C181,168.641,167.542,182.099,151,182.099z"/><path style="fill:#283954;" d="M497.583,22.701L390.522,61.632L187.615,8.237C92.599-16.763,1,55.103,1,152.099    c0,26.632,7.054,52.604,20.384,75.272l37.19,255.718c2.131,14.64,14.893,25.68,29.686,25.68h89.65    c18.239,0,32.3-16.18,29.688-34.288l-25.571-177.167c6.063-1.351-6.453,1.772,208.496-54.749l107.061,38.931    c6.499,2.366,13.417-2.452,13.417-9.397v-240C511,25.169,504.103,20.328,497.583,22.701z M381,224.39l-40,10.528V69.282l40,10.526    V224.39z M162.26,300.363l17.09,118.405H69.43L46.183,258.923C75.738,287.538,117.545,304.254,162.26,300.363z M177.91,488.768    H88.26c-4.931,0-9.184-3.68-9.895-8.56l-6.027-41.44h109.898l5.567,38.567C188.676,483.388,184.002,488.768,177.91,488.768z     M182.527,276.628C100.061,298.308,21,235.974,21,152.099c0-84.014,79.352-146.147,161.525-124.52L321,64.019v176.163    L182.527,276.628z M491,257.821l-90-32.727V79.103l90-32.727V257.821z"/></g></g><g id="Layer_1"/></svg>