<?xml version="1.0" ?><svg xmlns="http://www.w3.org/2000/svg" xmlns:xlink="http://www.w3.org/1999/xlink" version="1.1" viewBox="0 0 512 512" style="enable-background:new 0 0 512 512;" xml:space="preserve"><g id="_x31_5_x2C__pendulum_x2C__antique_x2C__grandfather_clock_x2C__time_and_date_x2C__furniture_and_household"><g><path style="fill:#3A98FF;" d="M411,401h-80c-5.522,0-10,4.478-10,10s4.478,10,10,10h80c5.522,0,10-4.478,10-10    S416.522,401,411,401z"/><path style="fill:#3A98FF;" d="M321,361c0,5.522,4.478,10,10,10h80c5.522,0,10-4.478,10-10s-4.478-10-10-10h-80    C325.478,351,321,355.478,321,361z"/><path style="fill:#3A98FF;" d="M181,401h-80c-5.522,0-10,4.478-10,10s4.478,10,10,10h80c5.523,0,10-4.478,10-10    S186.523,401,181,401z"/><path style="fill:#3A98FF;" d="M181,351h-80c-5.522,0-10,4.478-10,10s4.478,10,10,10h80c5.523,0,10-4.478,10-10    S186.523,351,181,351z"/><path style="fill:#3A98FF;" d="M256,191h25c5.522,0,10-4.477,10-10s-4.478-10-10-10h-15v-17c0-5.523-4.478-10-10-10    c-5.523,0-10,4.477-10,10v27C246,186.523,250.477,191,256,191z"/><path style="fill:#283954;" d="M431,101c16.542,0,30-13.458,30-30s-13.458-30-30-30H319.259C307.786,16.809,283.199,1,256,1    s-51.786,15.809-63.259,40H81c-16.542,0-30,13.458-30,30s13.458,30,30,30h10v350c-16.542,0-30,13.458-30,30v20    c0,5.522,4.478,10,10,10h370c5.522,0,10-4.478,10-10v-20c0-16.542-13.458-30-30-30V101H431z M431,481v10H81v-10    c0-5.514,4.486-10,10-10c40.708,0,289.55,0,330,0C426.514,471,431,475.486,431,481z M411,81c-5.522,0-10,4.478-10,10v360h-65    V237.57c0-5.522-4.478-10-10-10s-10,4.478-10,10V451H196V237.57c0-5.522-4.477-10-10-10s-10,4.478-10,10V451h-65V91    c0-5.522-4.478-10-10-10H81c-5.514,0-10-4.486-10-10s4.486-10,10-10h118.42c4.239,0,8.018-2.673,9.43-6.671    C215.889,34.395,234.837,21,256,21s40.111,13.395,47.15,33.329c1.412,3.998,5.19,6.671,9.43,6.671H431c5.514,0,10,4.486,10,10    s-4.486,10-10,10H411z"/><path style="fill:#3A98FF;" d="M256,281c55.141,0,100-44.859,100-100S311.141,81,256,81s-100,44.859-100,100S200.859,281,256,281z     M246,101.647V113.5c0,5.522,4.477,10,10,10c5.522,0,10-4.478,10-10v-11.853c36.128,4.528,64.824,33.225,69.353,69.353H323.5    c-5.522,0-10,4.477-10,10s4.478,10,10,10h11.853c-4.939,39.406-38.629,70-79.353,70s-74.414-30.594-79.353-70H188.5    c5.523,0,10-4.477,10-10s-4.477-10-10-10h-11.853C181.176,134.872,209.872,106.175,246,101.647z"/><path style="fill:#283954;" d="M256,238.5c-5.523,0-10,4.477-10,10c0,19.373,0,63.199,0,82.5c0,5.522,4.477,10,10,10    c5.522,0,10-4.478,10-10c0-19.301,0-63.127,0-82.5C266,242.977,261.522,238.5,256,238.5z"/><path style="fill:#283954;" d="M256,361c-5.523,0-10,4.478-10,10v20c0,5.522,4.477,10,10,10c5.522,0,10-4.478,10-10v-20    C266,365.478,261.522,361,256,361z"/><path style="fill:#3A98FF;" d="M256,321c-16.542,0-30,13.458-30,30s13.458,30,30,30s30-13.458,30-30S272.542,321,256,321z     M256,361c-5.514,0-10-4.486-10-10s4.486-10,10-10s10,4.486,10,10S261.514,361,256,361z"/></g></g><g id="Layer_1"/></svg>