<?xml version="1.0" ?><svg xmlns="http://www.w3.org/2000/svg" xmlns:xlink="http://www.w3.org/1999/xlink" version="1.1" viewBox="0 0 512 512" style="enable-background:new 0 0 512 512;" xml:space="preserve"><g id="_x31_4_x2C__clock_x2C__watch_x2C__time_x2C__clocks_x2C__wall_clock"><g><path style="fill:#3A98FF;" d="M461,256c0-112.984-91.928-205-205-205C143.606,51,51,142.25,51,256c0,112.58,91.462,205,205,205    C368.398,461,461,369.746,461,256z M356.992,410.924l-9.832-17.03c-2.762-4.782-8.876-6.422-13.66-3.66    c-4.783,2.762-6.422,8.877-3.66,13.66l9.852,17.064c-22.343,11.382-47.291,18.355-73.692,19.769V421c0-5.522-4.478-10-10-10    c-5.523,0-10,4.478-10,10v19.727c-26.401-1.413-51.349-8.387-73.692-19.769l9.852-17.064c2.762-4.783,1.123-10.898-3.66-13.66    c-4.785-2.762-10.898-1.122-13.66,3.66l-9.832,17.03c-21.484-14.053-39.879-32.447-53.932-53.932l17.03-9.832    c4.783-2.762,6.422-8.877,3.66-13.66c-2.761-4.782-8.876-6.421-13.66-3.66l-17.064,9.852    C79.659,317.349,72.686,292.401,71.273,266H91c5.522,0,10-4.478,10-10c0-5.523-4.478-10-10-10H71.273    c1.413-26.401,8.387-51.349,19.769-73.692l17.064,9.852c4.775,2.756,10.893,1.132,13.66-3.66c2.762-4.783,1.123-10.898-3.66-13.66    l-17.03-9.832c14.053-21.484,32.448-39.879,53.932-53.932l9.832,17.03c2.771,4.798,8.892,6.414,13.66,3.66    c4.783-2.762,6.422-8.877,3.66-13.66l-9.852-17.064C194.651,79.659,219.599,72.686,246,71.273V91c0,5.522,4.477,10,10,10    c5.522,0,10-4.478,10-10V71.273c26.401,1.413,51.349,8.387,73.692,19.769l-9.852,17.064c-2.762,4.783-1.123,10.898,3.66,13.66    c4.774,2.756,10.892,1.133,13.66-3.66l9.832-17.03c21.484,14.053,39.879,32.448,53.932,53.932l-17.03,9.832    c-4.783,2.762-6.422,8.877-3.66,13.66c2.769,4.795,8.888,6.416,13.66,3.66l17.064-9.852    c11.382,22.343,18.355,47.291,19.769,73.692H421c-5.522,0-10,4.477-10,10c0,5.522,4.478,10,10,10h19.727    c-1.413,26.401-8.387,51.349-19.769,73.692l-17.064-9.852c-4.784-2.761-10.897-1.122-13.66,3.66    c-2.762,4.783-1.123,10.898,3.66,13.66l17.03,9.832C396.871,378.477,378.477,396.871,356.992,410.924z"/><path style="fill:#3A98FF;" d="M266,227.72V151c0-5.523-4.478-10-10-10c-5.523,0-10,4.477-10,10v76.72    c-8.509,3.018-15.262,9.771-18.28,18.28H181c-5.523,0-10,4.477-10,10c0,5.522,4.477,10,10,10h46.72    c4.128,11.639,15.243,20,28.28,20c16.542,0,30-13.458,30-30C286,242.964,277.639,231.848,266,227.72z M256,266    c-5.514,0-10-4.486-10-10s4.486-10,10-10s10,4.486,10,10S261.514,266,256,266z"/><path style="fill:#283954;" d="M256,1C115.068,1,1,115.05,1,256c0,140.932,114.05,255,255,255c140.932,0,255-114.05,255-255    C511,115.068,396.95,1,256,1z M256,491C126.421,491,21,385.579,21,256S126.421,21,256,21s235,105.421,235,235S385.579,491,256,491    z"/></g></g><g id="Layer_1"/></svg>