<?xml version="1.0" ?><svg xmlns="http://www.w3.org/2000/svg" xmlns:xlink="http://www.w3.org/1999/xlink" version="1.1" viewBox="0 0 512 512" style="enable-background:new 0 0 512 512;" xml:space="preserve"><g id="_x31_1_x2C__fridge_x2C__kitchen_x2C__refrigerator_x2C__food_and_restaurant_x2C__furniture_and_household"><g><path style="fill:#3A98FF;" d="M398.5,161H240.271l-17.486-43.714c-1.519-3.797-5.196-6.286-9.285-6.286h-100    c-5.523,0-10,4.478-10,10s4.477,10,10,10h93.229l12,30H113.5c-5.523,0-10,4.477-10,10s4.477,10,10,10h105.229l-12,30H113.5    c-5.523,0-10,4.477-10,10s4.477,10,10,10h100c4.089,0,7.767-2.489,9.285-6.286L240.271,181H398.5c5.522,0,10-4.477,10-10    S404.022,161,398.5,161z"/><path style="fill:#3A98FF;" d="M298.5,111h60c5.522,0,10-4.478,10-10V51c0-5.522-4.478-10-10-10h-60c-5.522,0-10,4.478-10,10v50    C288.5,106.522,292.978,111,298.5,111z M308.5,61h40v30h-40V61z"/><path style="fill:#283954;" d="M398.5,1h-285c-5.523,0-10,4.477-10,10v450c0,5.522,4.477,10,10,10h20v30c0,5.522,4.477,10,10,10    h40c4.589,0,8.589-3.123,9.701-7.574L201.308,471h109.385l8.106,32.426c1.112,4.451,5.112,7.574,9.701,7.574h40    c5.522,0,10-4.478,10-10v-30h20c5.522,0,10-4.478,10-10V11C408.5,5.477,404.022,1,398.5,1z M388.5,21v380h-265V21H388.5z     M175.692,491H153.5v-20h27.192L175.692,491z M358.5,491h-22.192l-5-20H358.5V491z M123.5,451v-30h265v30    C307.49,451,204.682,451,123.5,451z"/></g></g><g id="Layer_1"/></svg>