<?xml version="1.0" ?><svg xmlns="http://www.w3.org/2000/svg" xmlns:xlink="http://www.w3.org/1999/xlink" version="1.1" viewBox="0 0 512 512" style="enable-background:new 0 0 512 512;" xml:space="preserve"><g id="_x32_9_x2C__stairs_x2C__stair_x2C__ascend_x2C__furniture_and_household_x2C__steps"><g><path style="fill:#3A98FF;" d="M66,244.125c-5.522,0-10,4.477-10,10v160c0,5.522,4.478,10,10,10s10-4.478,10-10v-160    C76,248.602,71.522,244.125,66,244.125z"/><path style="fill:#3A98FF;" d="M426,44.125c-5.522,0-10,4.478-10,10v110c0,5.523,4.478,10,10,10s10-4.477,10-10v-110    C436,48.603,431.522,44.125,426,44.125z"/><path style="fill:#3A98FF;" d="M346,74.425c-5.522,0-10,4.478-10,10v129.7c0,5.523,4.478,10,10,10s10-4.477,10-10v-129.7    C356,78.902,351.522,74.425,346,74.425z"/><path style="fill:#3A98FF;" d="M276,116.855c-5.522,0-10,4.478-10,10v137.27c0,5.522,4.478,10,10,10s10-4.478,10-10v-137.27    C286,121.333,281.522,116.855,276,116.855z"/><path style="fill:#3A98FF;" d="M206,159.275c-5.523,0-10,4.477-10,10v144.85c0,5.522,4.477,10,10,10s10-4.478,10-10v-144.85    C216,163.753,211.523,159.275,206,159.275z"/><path style="fill:#3A98FF;" d="M136,201.705c-5.523,0-10,4.478-10,10v152.42c0,5.522,4.477,10,10,10s10-4.478,10-10v-152.42    C146,206.183,141.523,201.705,136,201.705z"/><path style="fill:#283954;" d="M501,454.125h-15v-290c0-5.523-4.478-10-10-10h-90c-5.522,0-10,4.477-10,10v40    c-21.427,0-37.338,0-60,0c-5.522,0-10,4.477-10,10v40c-18.834,0-33.013,0-60,0c-5.523,0-10,4.478-10,10v40h-60    c-5.523,0-10,4.478-10,10v40h-60c-5.522,0-10,4.478-10,10v40H36c-5.522,0-10,4.478-10,10v40H11c-5.523,0-10,4.478-10,10    s4.477,10,10,10c12.495,0,477.828,0,490,0c5.522,0,10-4.478,10-10S506.522,454.125,501,454.125z M46,424.125    c10.423,0,75.096,0,85,0c5.523,0,10-4.478,10-10s-4.477-10-10-10h-15v-30c6.94,0,75.933,0,85,0c5.523,0,10-4.478,10-10    s-4.477-10-10-10h-15v-30c11.084,0,75.149,0,85,0c5.522,0,10-4.478,10-10s-4.478-10-10-10h-15v-30c18.064,0,66.844,0,85,0    c5.522,0,10-4.478,10-10s-4.478-10-10-10h-15v-30c18.011,0,67.053,0,85,0c5.522,0,10-4.477,10-10s-4.478-10-10-10h-15v-30h70v280    H46V424.125z"/><path style="fill:#283954;" d="M464.75,37.875h-60c-1.827,0-3.62,0.501-5.183,1.448L71.956,237.875H44.75c-5.522,0-10,4.477-10,10    s4.478,10,10,10h30c1.827,0,3.62-0.501,5.183-1.448L407.544,57.875h57.206c5.522,0,10-4.478,10-10S470.272,37.875,464.75,37.875z"/></g></g><g id="Layer_1"/></svg>