<?xml version="1.0" ?><svg xmlns="http://www.w3.org/2000/svg" xmlns:xlink="http://www.w3.org/1999/xlink" version="1.1" viewBox="0 0 512 512" style="enable-background:new 0 0 512 512;" xml:space="preserve"><g id="_x33_1_x2C__Cylinder_x2C__Gas_cylinder_x2C__Lpg_gas_x2C__Natural_gas_x2C__Propane"><g><path style="fill:#3A98FF;" d="M216,61h10v30c0,5.522,4.477,10,10,10s10-4.478,10-10V61h20v30c0,5.522,4.478,10,10,10    s10-4.478,10-10V61h10c5.522,0,10-4.478,10-10s-4.478-10-10-10c-23.456,0-55.045,0-80,0c-5.523,0-10,4.478-10,10    S210.477,61,216,61z"/><path style="fill:#3A98FF;" d="M320.546,296.454c0-32.803-51.049-94.892-56.87-101.863c-3.991-4.782-11.354-4.788-15.352,0    c-5.821,6.972-56.87,69.061-56.87,101.863C191.454,332.243,220.652,361,256,361C291.363,361,320.546,332.226,320.546,296.454z     M241.454,326.454c0-4.419,6.719-15.879,14.546-26.655c7.827,10.776,14.546,22.237,14.546,26.655    c0,8.021-6.525,14.546-14.546,14.546C247.98,341,241.454,334.475,241.454,326.454z M290.456,324.652    c-1.412-16.023-20.708-40.29-26.78-47.562c-3.991-4.781-11.354-4.788-15.352,0c-6.072,7.272-25.368,31.539-26.78,47.562    c-6.301-7.686-10.09-17.507-10.09-28.198c0-16.976,24.83-54.329,44.548-79.532c19.716,25.192,44.544,62.537,44.544,79.532    C300.546,307.145,296.757,316.966,290.456,324.652z"/><path style="fill:#283954;" d="M366,81h-20V21h15c5.522,0,10-4.478,10-10s-4.478-10-10-10c-16.961,0-203.385,0-210,0    c-5.523,0-10,4.477-10,10s4.477,10,10,10h15v60h-20c-22.056,0-40,17.944-40,40v310c0,22.056,17.944,40,40,40h2.193l1.253,5.009    C154.595,496.611,173.022,511,194.259,511H317.74c21.237,0,39.665-14.389,44.814-34.99l1.253-5.01H366c22.056,0,40-17.944,40-40    V121C406,98.944,388.056,81,366,81z M126,151h260v250H126V151z M186,21h140v60H186V21z M146,101c8.969,0,208.928,0,220,0    c11.028,0,20,8.972,20,20v10H126v-10C126,109.972,134.972,101,146,101z M343.152,471.159C340.232,482.841,329.782,491,317.74,491    H194.259c-12.042,0-22.491-8.159-25.411-19.842L168.809,471h174.383L343.152,471.159z M366,451c-15.492,0-210.281,0-220,0    c-11.028,0-20-8.972-20-20v-10h260v10C386,442.028,377.028,451,366,451z"/></g></g><g id="Layer_1"/></svg>