<?xml version="1.0" ?><svg xmlns="http://www.w3.org/2000/svg" xmlns:xlink="http://www.w3.org/1999/xlink" version="1.1" viewBox="0 0 512 512" style="enable-background:new 0 0 512 512;" xml:space="preserve"><g id="_x33_8_x2C__cradle_x2C__crib_x2C__baby_bed_x2C__baby_crib_x2C__kid_and_baby"><g><path style="fill:#283954;" d="M61,91h390c5.522,0,10-4.478,10-10s-4.478-10-10-10H61c-5.522,0-10,4.478-10,10S55.478,91,61,91z"/><path style="fill:#283954;" d="M451,131c5.522,0,10-4.478,10-10s-4.478-10-10-10c-58.817,0-340.829,0-390,0    c-5.522,0-10,4.478-10,10s4.478,10,10,10h50v210H61c-5.522,0-10,4.478-10,10s4.478,10,10,10c13.842,0,98.613,0,110,0v60H61    c-5.522,0-10,4.478-10,10s4.478,10,10,10c16.042,0,374.009,0,390,0c5.522,0,10-4.478,10-10s-4.478-10-10-10H341v-60    c11.152,0,96.55,0,110,0c5.522,0,10-4.478,10-10s-4.478-10-10-10h-50V131H451z M291,341V131h40v210H291z M271,131v210h-30V131H271    z M181,341V131h40v210H181z M131,341V131h30v210H131z M321,421H191v-60c73.461,0,57.785,0,130,0V421z M381,341h-30V131h30V341z"/><path style="fill:#283954;" d="M261,381h-10c-5.523,0-10,4.478-10,10s4.477,10,10,10h10c5.522,0,10-4.478,10-10    S266.522,381,261,381z"/><path style="fill:#3A98FF;" d="M36,1C16.701,1,1,16.701,1,36v465c0,5.522,4.477,10,10,10h50c5.522,0,10-4.478,10-10V36    C71,16.701,55.299,1,36,1z M51,491H21V36c0-8.271,6.729-15,15-15s15,6.729,15,15V491z"/><path style="fill:#3A98FF;" d="M476,1c-19.299,0-35,15.701-35,35v465c0,5.522,4.478,10,10,10h50c5.522,0,10-4.478,10-10V36    C511,16.701,495.299,1,476,1z M491,491h-30V36c0-8.271,6.728-15,15-15s15,6.729,15,15V491z"/></g></g><g id="Layer_1"/></svg>