<?xml version="1.0" ?><svg xmlns="http://www.w3.org/2000/svg" xmlns:xlink="http://www.w3.org/1999/xlink" version="1.1" viewBox="0 0 512 512" style="enable-background:new 0 0 512 512;" xml:space="preserve"><g id="_x31_3_x2C__plant_x2C__plants_x2C__flower_pot_x2C__plant_pot_x2C__pot"><g><path style="fill:#3A98FF;" d="M376.711,61.007C356.898,60.601,341,76.563,341,96v25h-20V66c0-35.178-28.263-65-65.213-65    C220.064,1.114,191,30.641,191,66.819V81h-20v-5c0-19.584-16.038-35.397-35.712-34.993C116.382,41.386,101,57.339,101,76.569V111    c0,22.056,17.944,40,40,40h50v80c0,5.523,4.477,10,10,10s10-4.477,10-10v-90c0-5.523-4.477-10-10-10h-60c-11.028,0-20-8.972-20-20    V76.569c0-8.421,6.589-15.404,14.688-15.566C144.256,60.82,151,67.737,151,76v15c0,5.522,4.477,10,10,10h40    c5.523,0,10-4.478,10-10V66.819c0-21.738,14.994-40.014,35-44.664V231c0,5.523,4.477,10,10,10c5.522,0,10-4.477,10-10V22.122    c19.718,4.453,35,22.126,35,43.878v65c0,5.523,4.478,10,10,10h40c5.522,0,10-4.477,10-10V96c0-8.238,6.682-15.134,15.311-14.997    c8.1,0.162,14.689,7.146,14.689,15.566V151c0,11.028-8.972,20-20,20h-60c-5.522,0-10,4.477-10,10v50c0,5.523,4.478,10,10,10    s10-4.477,10-10v-40h50c22.056,0,40-17.944,40-40V96.569C411,77.339,395.618,61.386,376.711,61.007z"/><path style="fill:#283954;" d="M398.01,310.451C419.505,307.074,436,288.429,436,266c0-24.814-20.186-45-45-45H121    c-24.813,0-45,20.186-45,45c0,22.429,16.494,41.074,37.99,44.451c2.769,13.568,30.038,147.209,33.856,165.919    c2.677,19.772,19.645,34.63,39.638,34.63h137.033c19.993,0,36.961-14.858,39.638-34.63    C368.17,456.692,394.988,325.264,398.01,310.451z M361.163,391H150.837l-6.122-30h222.568L361.163,391z M140.635,341l-6.122-30    h242.973l-6.121,30H140.635z M96,266c0-13.785,11.215-25,25-25h270c13.785,0,25,11.215,25,25    c0,13.607-10.929,24.702-24.469,24.987c-0.103-0.018-270.963-0.018-271.064,0C106.928,290.701,96,279.607,96,266z M344.362,473.48    c-1.249,9.987-9.78,17.52-19.846,17.52H187.483c-10.065,0-18.597-7.532-19.846-17.52c-0.091-0.725,0.712,3.394-12.719-62.48    h202.163C343.669,476.782,344.454,472.753,344.362,473.48z"/></g></g><g id="Layer_1"/></svg>