<?xml version="1.0" ?><svg xmlns="http://www.w3.org/2000/svg" xmlns:xlink="http://www.w3.org/1999/xlink" version="1.1" viewBox="0 0 512 512" style="enable-background:new 0 0 512 512;" xml:space="preserve"><g id="_x30_3_x2C__wardrobe_x2C__locker_x2C__furniture_x2C__furniture_and_household_x2C__closet"><g><path style="fill:#3A98FF;" d="M211,221c-5.523,0-10,4.477-10,10v20c0,5.522,4.477,10,10,10s10-4.478,10-10v-20    C221,225.477,216.523,221,211,221z"/><path style="fill:#3A98FF;" d="M301,221c-5.522,0-10,4.477-10,10v20c0,5.522,4.478,10,10,10s10-4.478,10-10v-20    C311,225.477,306.522,221,301,221z"/><path style="fill:#3A98FF;" d="M158.5,361h-20c-5.523,0-10,4.478-10,10s4.477,10,10,10h20c5.523,0,10-4.478,10-10    S164.023,361,158.5,361z"/><path style="fill:#3A98FF;" d="M373.5,361h-20c-5.522,0-10,4.478-10,10s4.478,10,10,10h20c5.522,0,10-4.478,10-10    S379.022,361,373.5,361z"/><path style="fill:#283954;" d="M471,51c-5.522,0-10,4.477-10,10v260H266V61c0-5.523-4.478-10-10-10c-5.523,0-10,4.477-10,10v260    H51V61c0-5.523-4.478-10-10-10s-10,4.477-10,10c0,12.483,0,379.132,0,400c0,5.522,4.478,10,10,10h10v30c0,5.522,4.478,10,10,10h40    c4.589,0,8.589-3.123,9.701-7.574L118.808,471h274.385l8.106,32.426c1.112,4.451,5.112,7.574,9.701,7.574h40    c5.522,0,10-4.478,10-10v-30h10c5.522,0,10-4.478,10-10c0-11.326,0-362.834,0-400C481,55.477,476.522,51,471,51z M461,401H266v-60    h195V401z M246,341v60H51v-60H246z M93.192,491H71v-20h27.192L93.192,491z M441,491h-22.192l-5-20H441V491z M51,451v-30h410v30    C297.011,451,283.38,451,51,451z"/><path style="fill:#3A98FF;" d="M501,1H11C5.477,1,1,5.477,1,11v50c0,5.523,4.477,10,10,10h490c5.522,0,10-4.477,10-10V11    C511,5.477,506.522,1,501,1z M491,51H21V21h470V51z"/></g></g><g id="Layer_1"/></svg>