<?xml version="1.0" ?><svg xmlns="http://www.w3.org/2000/svg" xmlns:xlink="http://www.w3.org/1999/xlink" version="1.1" viewBox="0 0 512 512" style="enable-background:new 0 0 512 512;" xml:space="preserve"><g id="_x32_0_x2C__espresso_x2C__coffee_machine_x2C__coffee_x2C__coffee_maker_x2C__maker"><g><path style="fill:#3A98FF;" d="M131,40.278H61c-5.522,0-10,4.478-10,10v39.278c0,5.522,4.478,10,10,10h70c5.523,0,10-4.478,10-10    V50.278C141,44.756,136.523,40.278,131,40.278z M121,79.557H71V60.278h50V79.557z"/><path style="fill:#3A98FF;" d="M451,40.278h-70c-5.522,0-10,4.478-10,10v39.278c0,5.522,4.478,10,10,10h70c5.522,0,10-4.478,10-10    V50.278C461,44.756,456.522,40.278,451,40.278z M441,79.557h-50V60.278h50V79.557z"/><path style="fill:#3A98FF;" d="M256,99.557c16.542,0,30-13.296,30-29.639c0-16.344-13.458-29.64-30-29.64s-30,13.296-30,29.64    C226,86.261,239.458,99.557,256,99.557z M256,60.278c5.514,0,10,4.324,10,9.64c0,5.314-4.486,9.639-10,9.639s-10-4.324-10-9.639    C246,64.603,250.486,60.278,256,60.278z"/><path style="fill:#283954;" d="M511,99.377V40.459C511,18.701,493.056,1,471,1H41C18.944,1,1,18.701,1,40.459v58.918    c0,21.758,17.944,39.459,40,39.459v293.246c-22.056,0-40,17.701-40,39.459V501c0,5.522,4.477,10,10,10h490c5.522,0,10-4.478,10-10    v-29.459c0-21.758-17.944-39.459-40-39.459V138.836C493.056,138.836,511,121.135,511,99.377z M21,99.377V40.459    C21,29.729,29.972,21,41,21h430c11.028,0,20,8.729,20,19.459v58.918c0,10.729-8.972,19.459-20,19.459c-46.776,0-386.057,0-430,0    C29.972,118.836,21,110.106,21,99.377z M246,207.212v-19.278h20v19.278H246z M211,167.934v-29.098h90v29.098    C279.042,167.934,232.953,167.934,211,167.934z M491,471.541V491H21v-19.459c0-10.729,8.972-19.459,20-19.459    c12.002,0,404.987,0,430,0C482.028,452.082,491,460.811,491,471.541z M371,432.082H141v-19.278h230V432.082z M451,432.082h-60    v-29.278c0-5.522-4.478-10-10-10H131c-5.522,0-10,4.478-10,10v29.278H61V138.836h130v39.098c0,5.523,4.477,10,10,10h25v29.278    c0,5.523,4.477,10,10,10h10v57.756c0,5.522,4.477,10,10,10c5.522,0,10-4.478,10-10v-57.756h10c5.522,0,10-4.477,10-10v-29.278h25    c5.522,0,10-4.477,10-10v-39.098h130V432.082z"/><path style="fill:#3A98FF;" d="M321,294.607v-9.64c0-5.522-4.478-10-10-10H201c-5.523,0-10,4.478-10,10v63.828    c0,35.294,28.714,64.008,64.008,64.008h1.984c26.644,0,49.528-16.368,59.15-39.573c23.985,2.88,44.858-15.667,44.858-39.164    C361,312.309,343.056,294.607,321,294.607z M301,294.968v19.278h-90v-19.278H301z M256.992,392.804h-1.984    c-24.266,0-44.008-19.742-44.008-44.008v-14.55h90v14.55C301,373.061,281.258,392.804,256.992,392.804z M320.807,353.517    c0.349-4.747,0.119-3.65,0.193-38.91c11.028,0,20,8.73,20,19.459C341,344.688,332.107,353.622,320.807,353.517z"/></g></g><g id="Layer_1"/></svg>