<?xml version="1.0" ?><svg xmlns="http://www.w3.org/2000/svg" xmlns:xlink="http://www.w3.org/1999/xlink" version="1.1" viewBox="0 0 512 512" style="enable-background:new 0 0 512 512;" xml:space="preserve"><g id="_x30_1_x2C__mirror_x2C__furniture_and_household_x2C__dressing_table_x2C__home_furniture_x2C__dresser"><g><path style="fill:#3A98FF;" d="M256,51c-68.925,0-125,56.075-125,125v105c0,5.522,4.477,10,10,10c5.522,0,10-4.478,10-10V176    c0-57.897,47.102-105,105-105c57.915,0,105,46.858,105,105v105c0,5.522,4.478,10,10,10s10-4.478,10-10V176    C381,107.051,325.215,51,256,51z"/><path style="fill:#3A98FF;" d="M111,311h-10c-5.523,0-10,4.478-10,10s4.477,10,10,10h10c5.522,0,10-4.478,10-10    S116.522,311,111,311z"/><path style="fill:#3A98FF;" d="M411,311h-10c-5.522,0-10,4.478-10,10s4.478,10,10,10h10c5.522,0,10-4.478,10-10    S416.522,311,411,311z"/><path style="fill:#3A98FF;" d="M261,311h-10c-5.523,0-10,4.478-10,10s4.477,10,10,10h10c5.522,0,10-4.478,10-10    S266.522,311,261,311z"/><path style="fill:#283954;" d="M471,271h-40v-95C431,79.505,352.495,1,256,1S81,79.505,81,176v95H41c-5.523,0-10,4.478-10,10    c0,7.864,0,207.244,0,220c0,5.522,4.477,10,10,10h40c5.522,0,10-4.478,10-10v-50h330v50c0,5.522,4.478,10,10,10h40    c5.522,0,10-4.478,10-10c0-12.646,0-212.153,0-220C481,275.478,476.522,271,471,271z M461,351H351v-60h110V351z M181,291h150v60    H181V291z M101,176c0-85.467,69.533-155,155-155s155,69.533,155,155v95c-32.252,0-277.379,0-310,0V176z M51,291h110v60H51V291z     M71,491H51V371h20V491z M91,431v-60c31.961,0,294.974,0,330,0v60H91z M441,491V371h20v120H441z"/><path style="fill:#283954;" d="M261,391h-10c-5.523,0-10,4.478-10,10s4.477,10,10,10h10c5.522,0,10-4.478,10-10    S266.522,391,261,391z"/></g></g><g id="Layer_1"/></svg>