<?xml version="1.0" ?><svg xmlns="http://www.w3.org/2000/svg" xmlns:xlink="http://www.w3.org/1999/xlink" version="1.1" viewBox="0 0 512 512" style="enable-background:new 0 0 512 512;" xml:space="preserve"><g id="_x34_9_x2C__Dressing_x2C__dressing_table_x2C__dressing_room_x2C__table_x2C__furniture_and_household"><g><path style="fill:#283954;" d="M254.53,511h-120c-5.523,0-10-4.478-10-10v-90c0-5.522,4.478-10,10-10c5.522,0,10,4.478,10,10v80    h100v-80c0-5.522,4.477-10,10-10c5.522,0,10,4.478,10,10v90C264.53,506.522,260.053,511,254.53,511z"/><path style="fill:#3A98FF;" d="M196.551,50.204c-47.038,0-85.306,38.268-85.306,85.306v125.357    c0,5.599,4.555,10.153,10.153,10.153c6.232,0,10.929-5.631,9.847-11.754V135.51c0-36.01,29.296-65.306,65.306-65.306    c36.01,0,65.307,29.296,65.307,65.306v123.757c-1.081,6.115,3.607,11.754,9.847,11.754c5.599,0,10.153-4.555,10.153-10.153V135.51    C281.857,88.472,243.589,50.204,196.551,50.204z"/><path style="fill:#3A98FF;" d="M239.53,351h-90c-22.056,0-40,17.944-40,40v20c0,5.522,4.478,10,10,10h150c5.522,0,10-4.478,10-10    v-20C279.53,368.944,261.586,351,239.53,351z M259.53,401h-130v-10c0-11.028,8.972-20,20-20h90c11.028,0,20,8.972,20,20V401z"/><path style="fill:#283954;" d="M480.959,251.02h-29.918V222c0-5.523-4.477-10-10-10h-50c-5.522,0-10,4.477-10,10v29.02h-48.979    V135.255C332.061,60.675,271.387,0,196.807,0h-0.511C121.716,0,61.041,60.675,61.041,135.255V251.02h-30    c-16.587,0-30.082,13.494-30.082,30.081v20.082c0,12.354,7.489,22.989,18.163,27.614v153.121    c0,16.587,13.495,30.081,30.082,30.081s30.082-13.494,30.082-30.081V331.266h231.02c0,15.95,0,136.172,0,150.652    c0,5.522,4.478,10,10,10h112.206C436.643,503.603,447.796,512,460.878,512c16.587,0,30.081-13.494,30.081-30.081V329.55    c11.685-4.132,20.082-15.284,20.082-28.366v-20.082C511.041,264.515,497.546,251.02,480.959,251.02z M401.041,232h30v19h-30V232z     M81.041,135.255C81.041,71.703,132.744,20,196.296,20h0.511c63.552,0,115.255,51.703,115.255,115.255V251.02H81.041V135.255z     M59.286,481.919c0,5.559-4.522,10.081-10.082,10.081s-10.082-4.522-10.082-10.081V331.266h20.164V481.919z M430.796,391.592    h-100.49v-60.326h100.49V391.592z M330.306,411.592h100.49v60.326h-100.49V411.592z M470.959,481.919    c0,5.559-4.523,10.081-10.081,10.081c-5.56,0-10.082-4.522-10.082-10.081c0-19.263,0-134.861,0-150.653h20.163V481.919z     M491.041,301.184c0,5.56-4.522,10.082-10.082,10.082c-27.116,0-424.314,0-449.918,0c-5.56,0-10.082-4.522-10.082-10.082v-20.082    c0-5.559,4.522-10.081,10.082-10.081c19.886,0,430.272,0,449.918,0c5.56,0,10.082,4.522,10.082,10.081V301.184z"/><path style="fill:#283954;" d="M370.51,371.429h20.082c5.522,0,10-4.478,10-10c0-5.522-4.478-10-10-10H370.51    c-5.522,0-10,4.478-10,10C360.51,366.951,364.987,371.429,370.51,371.429z"/><path style="fill:#283954;" d="M390.592,431.755H370.51c-5.522,0-10,4.477-10,10c0,5.522,4.478,10,10,10h20.082    c5.522,0,10-4.478,10-10C400.592,436.232,396.114,431.755,390.592,431.755z"/></g></g><g id="Layer_1"/></svg>