<?xml version="1.0" ?><svg xmlns="http://www.w3.org/2000/svg" xmlns:xlink="http://www.w3.org/1999/xlink" version="1.1" viewBox="0 0 512 512" style="enable-background:new 0 0 512 512;" xml:space="preserve"><g id="_x34_0_x2C__healthcare_x2C__first_aid_kit_x2C__emergency_x2C__medical_kit_x2C__first_aid_box"><g><path style="fill:#3A98FF;" d="M186,121c5.523,0,10-4.478,10-10V71c0-11.028,8.972-20,20-20h80c11.028,0,20,8.972,20,20v40    c0,5.522,4.478,10,10,10s10-4.478,10-10V71c0-22.056-17.944-40-40-40h-80c-22.056,0-40,17.944-40,40v40    C176,116.522,180.477,121,186,121z"/><path style="fill:#283954;" d="M471,101h-40V71c0-5.522-4.478-10-10-10h-50c-5.522,0-10,4.478-10,10v30H151V71    c0-5.522-4.477-10-10-10H91c-5.522,0-10,4.478-10,10v30H41c-22.056,0-40,17.944-40,40c0,26.769,0,231.795,0,260    c0,22.056,17.944,40,40,40h20v30c0,5.522,4.478,10,10,10h40c4.589,0,8.589-3.123,9.701-7.574L128.808,441h254.385l8.106,32.426    c1.112,4.451,5.112,7.574,9.701,7.574h40c5.522,0,10-4.478,10-10v-30h20c22.056,0,40-17.944,40-40c0-26.769,0-231.795,0-260    C511,118.944,493.056,101,471,101z M381,81h30v20h-30V81z M101,81h30v20h-30V81z M103.192,461H81v-20h27.192L103.192,461z     M431,461h-22.192l-5-20H431V461z M471,421H41c-11.028,0-20-8.972-20-20v-60h142.8c5.522,0,10-4.478,10-10s-4.478-10-10-10H21V221    h142.8c5.522,0,10-4.477,10-10s-4.478-10-10-10H21v-60c0-11.028,8.972-20,20-20h430c11.028,0,20,8.972,20,20v60H348.2    c-5.522,0-10,4.477-10,10s4.478,10,10,10H491v100H348.2c-5.522,0-10,4.478-10,10s4.478,10,10,10H491v60    C491,412.028,482.028,421,471,421z"/><path style="fill:#3A98FF;" d="M306,241h-20v-20c0-5.523-4.478-10-10-10h-40c-5.523,0-10,4.477-10,10v20h-20    c-5.523,0-10,4.477-10,10v40c0,5.522,4.477,10,10,10h20v20c0,5.522,4.477,10,10,10h40c5.522,0,10-4.478,10-10v-20h20    c5.522,0,10-4.478,10-10v-40C316,245.477,311.522,241,306,241z M296,281h-20c-5.522,0-10,4.478-10,10v20h-20v-20    c0-5.522-4.477-10-10-10h-20v-20h20c5.523,0,10-4.478,10-10v-20h20v20c0,5.522,4.478,10,10,10h20V281z"/><path style="fill:#3A98FF;" d="M256,151c-66.168,0-120,53.832-120,120s53.832,120,120,120s120-53.832,120-120S322.168,151,256,151    z M256,371c-55.141,0-100-44.859-100-100s44.859-100,100-100s100,44.859,100,100S311.141,371,256,371z"/></g></g><g id="Layer_1"/></svg>