<?xml version="1.0" ?><svg xmlns="http://www.w3.org/2000/svg" xmlns:xlink="http://www.w3.org/1999/xlink" version="1.1" viewBox="0 0 512 512" style="enable-background:new 0 0 512 512;" xml:space="preserve"><g id="_x34_2_x2C__garage_x2C__car_x2C__parking_x2C__vehicle_x2C__transportation"><g><path style="fill:#3A98FF;" d="M121,231h270c5.522,0,10-4.477,10-10c0-5.522-4.478-10-10-10H121c-5.522,0-10,4.478-10,10    C111,226.522,115.478,231,121,231z"/><path style="fill:#3A98FF;" d="M391,291H121c-5.522,0-10,4.477-10,10c0,5.522,4.478,10,10,10h270c5.522,0,10-4.478,10-10    C401,295.477,396.522,291,391,291z"/><path style="fill:#3A98FF;" d="M391,371H121c-5.522,0-10,4.477-10,10c0,5.522,4.478,10,10,10h270c5.522,0,10-4.478,10-10    C401,375.477,396.522,371,391,371z"/><path style="fill:#3A98FF;" d="M391,451H121c-5.522,0-10,4.477-10,10c0,5.522,4.478,10,10,10h270c5.522,0,10-4.478,10-10    C401,455.477,396.522,451,391,451z"/><path style="fill:#3A98FF;" d="M256,141c22.056,0,40-17.944,40-40s-17.944-40-40-40s-40,17.944-40,40S233.944,141,256,141z     M256,81c11.028,0,20,8.972,20,20s-8.972,20-20,20c-11.028,0-20-8.972-20-20S244.972,81,256,81z"/><path style="fill:#283954;" d="M505.398,122.019l-245-120c-2.775-1.359-6.021-1.359-8.797,0l-245,120    C3.173,123.698,1,127.183,1,131v50c0,5.523,4.477,10,10,10h50v300H41c-5.522,0-10,4.477-10,10c0,5.522,4.478,10,10,10    c4.051,0,425.389,0,430,0c5.522,0,10-4.478,10-10c0-5.523-4.478-10-10-10h-20V191h50c5.522,0,10-4.477,10-10v-50    C511,127.183,508.827,123.698,505.398,122.019z M381,331H131v-60h250V331z M131,351h250v60H131V351z M381,251H131v-60h250V251z     M131,491v-60h250v60H131z M491,171h-50c-5.522,0-10,4.478-10,10v310h-30V181c0-5.522-4.478-10-10-10H121c-5.522,0-10,4.478-10,10    v310H81V181c0-5.522-4.478-10-10-10H21v-33.763L256,22.135l235,115.103V171z"/></g></g><g id="Layer_1"/></svg>