<?xml version="1.0" ?><svg xmlns="http://www.w3.org/2000/svg" xmlns:xlink="http://www.w3.org/1999/xlink" version="1.1" viewBox="0 0 512 512" style="enable-background:new 0 0 512 512;" xml:space="preserve"><g id="_x34_3_x2C__armchair_x2C__furniture_and_household_x2C__household_x2C__sofa_x2C__furniture"><g><path style="fill:#3A98FF;" d="M343.5,271h-175c-37.22,0-67.5,30.28-67.5,67.5V381c0,5.522,4.478,10,10,10s10-4.478,10-10v-42.5    c0-26.191,21.309-47.5,47.5-47.5h175c26.191,0,47.5,21.309,47.5,47.5V381c0,5.522,4.477,10,10,10c5.522,0,10-4.478,10-10v-42.5    C411,301.28,380.72,271,343.5,271z"/><path style="fill:#3A98FF;" d="M331.429,133.071c3.908,3.906,10.236,3.904,14.143,0l5.429-5.429l5.429,5.429    c3.908,3.906,10.236,3.904,14.143,0c3.905-3.905,3.905-10.237,0-14.143l-5.429-5.429l5.429-5.429    c3.905-3.905,3.905-10.237,0-14.143c-3.906-3.904-10.236-3.904-14.143,0L351,99.357l-5.429-5.429    c-3.906-3.904-10.236-3.904-14.143,0c-3.905,3.905-3.905,10.237,0,14.143l5.429,5.429l-5.429,5.429    C327.523,122.834,327.523,129.166,331.429,133.071z"/><path style="fill:#3A98FF;" d="M236.429,133.071c3.908,3.906,10.236,3.904,14.143,0l5.429-5.429l5.429,5.429    c3.908,3.906,10.236,3.904,14.143,0c3.905-3.905,3.905-10.237,0-14.143l-5.429-5.429l5.429-5.429    c3.905-3.905,3.905-10.237,0-14.143c-3.906-3.904-10.236-3.904-14.143,0L256,99.357l-5.429-5.429    c-3.906-3.904-10.236-3.904-14.143,0c-3.905,3.905-3.905,10.237,0,14.143l5.429,5.429l-5.429,5.429    C232.523,122.834,232.523,129.166,236.429,133.071z"/><path style="fill:#3A98FF;" d="M281.429,193.071l5.429,5.429l-5.429,5.429c-3.905,3.905-3.905,10.237,0,14.143    c3.908,3.906,10.236,3.904,14.143,0l5.429-5.429l5.429,5.429c3.908,3.906,10.236,3.904,14.143,0    c3.905-3.905,3.905-10.237,0-14.143l-5.429-5.429l5.429-5.429c3.905-3.905,3.905-10.237,0-14.143    c-3.906-3.904-10.236-3.904-14.143,0L301,184.357l-5.429-5.429c-3.906-3.904-10.236-3.904-14.143,0    C277.523,182.834,277.523,189.166,281.429,193.071z"/><path style="fill:#3A98FF;" d="M186.429,193.071l5.429,5.429l-5.429,5.429c-3.905,3.905-3.905,10.237,0,14.143    c3.908,3.906,10.236,3.904,14.143,0l5.429-5.429l5.429,5.429c3.908,3.906,10.236,3.904,14.143,0    c3.905-3.905,3.905-10.237,0-14.143l-5.429-5.429l5.429-5.429c3.905-3.905,3.905-10.237,0-14.143    c-3.906-3.904-10.236-3.904-14.143,0L206,184.357l-5.429-5.429c-3.906-3.904-10.236-3.904-14.143,0    C182.523,182.834,182.523,189.166,186.429,193.071z"/><path style="fill:#3A98FF;" d="M141.429,133.071c3.908,3.906,10.236,3.904,14.143,0l5.429-5.429l5.429,5.429    c3.908,3.906,10.236,3.904,14.143,0c3.905-3.905,3.905-10.237,0-14.143l-5.429-5.429l5.429-5.429    c3.905-3.905,3.905-10.237,0-14.143c-3.906-3.904-10.236-3.904-14.143,0L161,99.357l-5.429-5.429    c-3.906-3.904-10.236-3.904-14.143,0c-3.905,3.905-3.905,10.237,0,14.143l5.429,5.429l-5.429,5.429    C137.523,122.834,137.523,129.166,141.429,133.071z"/><path style="fill:#283954;" d="M510.986,214.884C510.396,190.686,489.897,171,465.291,171H441v-66c0-46.317-37.683-84-84-84H155    c-46.317,0-84,37.683-84,84v66H46.709c-24.607,0-45.105,19.686-45.695,43.884C0.431,238.773,18.336,258.239,41,260.728V411    c0,22.056,17.944,40,40,40h20v30c0,5.522,4.478,10,10,10h40c4.589,0,8.589-3.123,9.701-7.574L168.808,451h174.385l8.106,32.426    c1.112,4.451,5.112,7.574,9.701,7.574h40c5.522,0,10-4.478,10-10v-30h20c22.056,0,40-17.944,40-40V260.717    C493.655,258.228,511.57,238.793,510.986,214.884z M155,41h202c35.29,0,64,28.71,64,64v67.266c-17.233,4.452-30,20.13-30,38.734    v160H121c0-14.072,0-138.076,0-160c0-18.604-12.767-34.282-30-38.734V105C91,69.71,119.71,41,155,41z M143.192,471H121v-20h27.192    L143.192,471z M391,471h-22.192l-5-20H391V471z M466,241h-5c-5.523,0-10,4.477-10,10v160c0,11.028-8.972,20-20,20H81    c-11.028,0-20-8.972-20-20V251c0-5.523-4.478-10-10-10h-5c-14.012,0-25.337-11.497-24.992-25.628    C21.336,201.933,32.865,191,46.709,191H81c11.028,0,20,8.972,20,20c0,29.939,0,151.684,0,170c0,5.522,4.478,10,10,10h290    c5.522,0,10-4.478,10-10V211c0-11.028,8.972-20,20-20h34.291c13.844,0,25.373,10.933,25.701,24.372    C491.337,229.491,480.022,241,466,241z"/></g></g><g id="Layer_1"/></svg>