<?xml version="1.0" ?><svg xmlns="http://www.w3.org/2000/svg" xmlns:xlink="http://www.w3.org/1999/xlink" version="1.1" viewBox="0 0 512 512" style="enable-background:new 0 0 512 512;" xml:space="preserve"><g id="_x32_5_x2C__paint_x2C__painting_x2C__paint_bucket_x2C__bucket_x2C__color"><g><path style="fill:#283954;" d="M461.553,96.016c-5.531-0.331-10.233,3.915-10.539,9.43L434.317,406H77.681L60.983,105.445    c-0.307-5.514-5.041-9.749-10.539-9.43c-5.515,0.306-9.736,5.024-9.43,10.539L59.44,438.219C60.616,459.404,78.16,476,99.379,476    h313.24c21.219,0,38.763-16.596,39.939-37.781l18.426-331.664C471.29,101.04,467.068,96.321,461.553,96.016z M412.619,456H99.379    c-10.609,0-19.381-8.298-19.97-18.891L78.792,426h354.414l-0.617,11.109C432,447.702,423.228,456,412.619,456z"/><path style="fill:#283954;" d="M165.999,246c19.299,0,35-15.701,35-35v-15c0-11.028,8.972-20,20-20c11.028,0,20,8.972,20,20v50    c0,22.056,17.944,40,40,40c22.056,0,40-17.944,40-40V46c0-5.522-4.478-10-10-10c-5.523,0-10,4.478-10,10v200    c0,11.028-8.972,20-20,20c-11.028,0-20-8.972-20-20v-50c0-22.056-17.944-40-40-40s-40,17.944-40,40v15c0,8.271-6.729,15-15,15    s-15-6.729-15-15V46c0-5.522-4.477-10-10-10c-5.522,0-10,4.478-10,10v165C130.999,230.299,146.7,246,165.999,246z"/><path style="fill:#3A98FF;" d="M510.999,76c0,22.095-17.9,40-40,40h-150V96h150c11.047,0,20-8.949,20-20c0-11.03-8.97-20-20-20    h-430c-11.048,0-20,8.949-20,20c0,11.03,8.97,20,20,20h90v20h-90c-22.06,0-40-17.94-40-40c0-22.096,17.899-40,40-40h430    C493.059,36,510.999,53.94,510.999,76z"/><path style="fill:#3A98FF;" d="M508.069,288.93l-110-110c1.88-3.92,2.93-8.3,2.93-12.93c0-16.54-13.46-30-30-30    c-16.54,0-30,13.46-30,30s13.46,30,30,30c4.63,0,9.01-1.05,12.93-2.93c41.191,41.191,85.528,85.528,110,110    c3.905,3.905,10.232,3.908,14.14,0C511.979,299.17,511.979,292.83,508.069,288.93z M370.999,176c-5.51,0-10-4.49-10-10    s4.49-10,10-10c5.51,0,10,4.49,10,10S376.509,176,370.999,176z"/></g></g><g id="Layer_1"/></svg>