<?xml version="1.0" ?><svg xmlns="http://www.w3.org/2000/svg" xmlns:xlink="http://www.w3.org/1999/xlink" version="1.1" viewBox="0 0 512 512" style="enable-background:new 0 0 512 512;" xml:space="preserve"><g id="_x33_0_x2C__fence_x2C__wood_x2C__limit_x2C__farming_and_gardening_x2C__yard"><g><path style="fill:#3A98FF;" d="M56,191c5.522,0,10-4.477,10-10s-4.478-10-10-10H11c-5.523,0-10,4.477-10,10v70    c0,5.522,4.477,10,10,10h45c5.522,0,10-4.478,10-10c0-5.523-4.478-10-10-10H21v-50H56z"/><path style="fill:#3A98FF;" d="M56,351c5.522,0,10-4.478,10-10s-4.478-10-10-10H11c-5.523,0-10,4.478-10,10v70    c0,5.522,4.477,10,10,10h45c5.522,0,10-4.478,10-10s-4.478-10-10-10H21v-50H56z"/><path style="fill:#3A98FF;" d="M206,241h-50c-5.523,0-10,4.477-10,10c0,5.522,4.477,10,10,10h50c5.523,0,10-4.478,10-10    C216,245.477,211.523,241,206,241z"/><path style="fill:#3A98FF;" d="M206,171h-50c-5.523,0-10,4.477-10,10s4.477,10,10,10h50c5.523,0,10-4.477,10-10    S211.523,171,206,171z"/><path style="fill:#3A98FF;" d="M206,401h-50c-5.523,0-10,4.478-10,10s4.477,10,10,10h50c5.523,0,10-4.478,10-10    S211.523,401,206,401z"/><path style="fill:#3A98FF;" d="M206,331h-50c-5.523,0-10,4.478-10,10s4.477,10,10,10h50c5.523,0,10-4.478,10-10    S211.523,331,206,331z"/><path style="fill:#3A98FF;" d="M356,241h-50c-5.522,0-10,4.477-10,10c0,5.522,4.478,10,10,10h50c5.522,0,10-4.478,10-10    C366,245.477,361.522,241,356,241z"/><path style="fill:#3A98FF;" d="M356,171h-50c-5.522,0-10,4.477-10,10s4.478,10,10,10h50c5.522,0,10-4.477,10-10    S361.522,171,356,171z"/><path style="fill:#3A98FF;" d="M356,401h-50c-5.522,0-10,4.478-10,10s4.478,10,10,10h50c5.522,0,10-4.478,10-10    S361.522,401,356,401z"/><path style="fill:#3A98FF;" d="M356,331h-50c-5.522,0-10,4.478-10,10s4.478,10,10,10h50c5.522,0,10-4.478,10-10    S361.522,331,356,331z"/><path style="fill:#3A98FF;" d="M501,171h-45c-5.522,0-10,4.477-10,10s4.478,10,10,10h35v50h-35c-5.522,0-10,4.477-10,10    c0,5.522,4.478,10,10,10h45c5.522,0,10-4.478,10-10v-70C511,175.477,506.522,171,501,171z"/><path style="fill:#3A98FF;" d="M501,331h-45c-5.522,0-10,4.478-10,10s4.478,10,10,10h35v50h-35c-5.522,0-10,4.478-10,10    s4.478,10,10,10h45c5.522,0,10-4.478,10-10v-70C511,335.478,506.522,331,501,331z"/><path style="fill:#283954;" d="M501,491h-35V71c0-2.339-0.82-4.604-2.317-6.401l-50-60C411.782,2.318,408.968,1,406,1    s-5.782,1.318-7.683,3.599l-50,60C346.82,66.396,346,68.661,346,71v420h-30V71c0-2.339-0.82-4.604-2.317-6.401l-50-60    C261.782,2.318,258.968,1,256,1s-5.782,1.318-7.683,3.599l-50,60C196.82,66.396,196,68.661,196,71v420h-30V71    c0-2.339-0.82-4.604-2.317-6.401l-50-60C111.782,2.318,108.968,1,106,1s-5.782,1.318-7.683,3.599l-50,60    C46.82,66.396,46,68.661,46,71v420H11c-5.523,0-10,4.478-10,10s4.477,10,10,10h45c32.078,0,213.695,0,250,0h50h100h45    c5.522,0,10-4.478,10-10S506.522,491,501,491z M66,491V74.62l40-48l40,48V491H66z M216,491V74.62l40-48l40,48V491H216z M366,491    V74.62l40-48l40,48V491H366z"/><circle style="fill:#3A98FF;" cx="106" cy="216" r="10"/><circle style="fill:#3A98FF;" cx="106" cy="376.004" r="10"/><circle style="fill:#3A98FF;" cx="256" cy="216" r="10"/><circle style="fill:#3A98FF;" cx="256" cy="376.004" r="10"/><circle style="fill:#3A98FF;" cx="406" cy="216" r="10"/><circle style="fill:#3A98FF;" cx="406" cy="376.004" r="10"/></g></g><g id="Layer_1"/></svg>