<?xml version="1.0" ?><svg xmlns="http://www.w3.org/2000/svg" xmlns:xlink="http://www.w3.org/1999/xlink" version="1.1" viewBox="0 0 512 512" style="enable-background:new 0 0 512 512;" xml:space="preserve"><g id="_x30_4_x2C__lamp_x2C__floor_lamp_x2C__interior_design_x2C__lamp_decor_x2C__home_decor"><g><path style="fill:#283954;" d="M356,321c16.542,0,30-13.458,30-30c0-13.036-8.361-24.152-20-28.28V201c0-5.523-4.477-10-10-10    c-5.522,0-10,4.477-10,10v61.72c-11.639,4.128-20,15.243-20,28.28C326,307.542,339.458,321,356,321z M356,281    c5.514,0,10,4.486,10,10s-4.486,10-10,10s-10-4.486-10-10S350.486,281,356,281z"/><path style="fill:#283954;" d="M391,491h-15v-30c0-5.522-4.477-10-10-10h-20v-30c0-5.522-4.477-10-10-10h-50V251h15    c5.523,0,10-4.477,10-10v-40c0-5.523-4.477-10-10-10c-5.522,0-10,4.477-10,10v30h-70v-30c0-5.523-4.478-10-10-10    c-5.523,0-10,4.477-10,10v40c0,5.523,4.477,10,10,10h15v160h-50c-5.523,0-10,4.478-10,10v30h-20c-5.523,0-10,4.478-10,10v30h-15    c-5.522,0-10,4.478-10,10s4.478,10,10,10c19.751,0,255.926,0,270,0c5.523,0,10-4.478,10-10S396.523,491,391,491z M246,251h20v160    h-20V251z M186,431h140v20H186V431z M156,491v-20c8.903,0,169.641,0,200,0v20H156z"/><path style="fill:#3A98FF;" d="M430.128,196.917l-85-190C343.518,3.317,339.943,1,336,1c-15.391,0-144.219,0-160,0    c-3.943,0-7.518,2.317-9.128,5.917l-85,190C78.914,203.524,83.761,211,91,211c27.659,0,314.29,0,330,0    C428.24,211,433.086,203.524,430.128,196.917z M182.481,21h26.508l-31.316,170h-71.245L182.481,21z M198.011,191l31.315-170    h53.348l31.316,170H198.011z M334.327,191L303.011,21h26.508l76.053,170H334.327z"/></g></g><g id="Layer_1"/></svg>