<?xml version="1.0" ?><svg xmlns="http://www.w3.org/2000/svg" xmlns:xlink="http://www.w3.org/1999/xlink" version="1.1" viewBox="0 0 512 512" style="enable-background:new 0 0 512 512;" xml:space="preserve"><g id="_x34_4_x2C__stove_x2C__kitchen_x2C__gas_x2C__gas_stove_x2C__cooking"><g><path style="fill:#3A98FF;" d="M156,51c0,5.522,4.477,10,10,10s10-4.478,10-10V11c0-5.523-4.477-10-10-10H66    c-5.522,0-10,4.477-10,10v40c0,5.522,4.478,10,10,10s10-4.478,10-10V21h80V51z"/><path style="fill:#3A98FF;" d="M206,61c5.523,0,10-4.478,10-10V21h80v30c0,5.522,4.478,10,10,10s10-4.478,10-10V11    c0-5.523-4.478-10-10-10H206c-5.523,0-10,4.477-10,10v40C196,56.522,200.477,61,206,61z"/><path style="fill:#3A98FF;" d="M446,1H346c-5.522,0-10,4.477-10,10v40c0,5.522,4.478,10,10,10s10-4.478,10-10V21h80v30    c0,5.522,4.478,10,10,10s10-4.478,10-10V11C456,5.477,451.522,1,446,1z"/><path style="fill:#3A98FF;" d="M150.701,218.574c-1.34-5.359-6.77-8.623-12.127-7.275c-5.357,1.339-8.615,6.769-7.275,12.127    l10,40c1.112,4.451,5.112,7.574,9.701,7.574h210c4.589,0,8.589-3.123,9.701-7.574l10-40c1.34-5.358-1.918-10.788-7.275-12.127    c-5.351-1.341-10.788,1.918-12.127,7.275L353.192,251H158.808L150.701,218.574z"/><path style="fill:#3A98FF;" d="M371,291H141c-5.523,0-10,4.478-10,10v60c0,5.522,4.477,10,10,10h230c5.522,0,10-4.478,10-10v-60    C381,295.478,376.522,291,371,291z M361,351H151v-40h210V351z"/><path style="fill:#283954;" d="M471,41H41c-5.522,0-10,4.478-10,10v400c0,5.522,4.478,10,10,10h21.802l8.392,41.961    C72.129,507.636,76.233,511,81,511h350c4.767,0,8.871-3.364,9.806-8.039L449.198,461H471c5.522,0,10-4.478,10-10V51    C481,45.478,476.522,41,471,41z M461,61v100H51V61H461z M422.802,491H89.198l-6-30h345.604L422.802,491z M441,441H71H51V181h410    v260H441z"/><path style="fill:#283954;" d="M101,141c16.542,0,30-13.458,30-30s-13.458-30-30-30s-30,13.458-30,30S84.458,141,101,141z     M101,101c5.514,0,10,4.486,10,10s-4.486,10-10,10s-10-4.486-10-10S95.486,101,101,101z"/><path style="fill:#283954;" d="M181,141c16.542,0,30-13.458,30-30s-13.458-30-30-30s-30,13.458-30,30S164.458,141,181,141z     M181,101c5.514,0,10,4.486,10,10s-4.486,10-10,10s-10-4.486-10-10S175.486,101,181,101z"/><path style="fill:#283954;" d="M261,141c16.542,0,30-13.458,30-30s-13.458-30-30-30s-30,13.458-30,30S244.458,141,261,141z     M261,101c5.514,0,10,4.486,10,10s-4.486,10-10,10s-10-4.486-10-10S255.486,101,261,101z"/><path style="fill:#283954;" d="M321,101h110c5.522,0,10-4.478,10-10s-4.478-10-10-10H321c-5.522,0-10,4.478-10,10    S315.478,101,321,101z"/><path style="fill:#283954;" d="M321,141h110c5.522,0,10-4.477,10-10c0-5.522-4.478-10-10-10H321c-5.522,0-10,4.478-10,10    C311,136.523,315.478,141,321,141z"/><path style="fill:#283954;" d="M421,211H91c-5.522,0-10,4.477-10,10v180c0,5.522,4.478,10,10,10h330c5.522,0,10-4.478,10-10V221    C431,215.477,426.522,211,421,211z M411,391H101V231h310V391z"/></g></g><g id="Layer_1"/></svg>