<?xml version="1.0" ?><svg xmlns="http://www.w3.org/2000/svg" xmlns:xlink="http://www.w3.org/1999/xlink" version="1.1" viewBox="0 0 512 512" style="enable-background:new 0 0 512 512;" xml:space="preserve"><g id="_x34_7_x2C__vacuum_x2C__cleaning_x2C__clean_x2C__vacuums_x2C__house_things"><g><path style="fill:#3A98FF;" d="M501,511H324.6c-5.523,0-10-4.478-10-10v-30c0-22.056,17.675-40,39.4-40h32.889    c5.522,0,10,4.478,10,10s-4.478,10-10,10H354c-10.697,0-19.4,8.972-19.4,20v20H491v-20c0-11.028-8.703-20-19.4-20h-32.889    c-5.522,0-10-4.478-10-10s4.478-10,10-10H471.6c21.726,0,39.4,17.944,39.4,40v30C511,506.522,506.522,511,501,511z"/><path style="fill:#3A98FF;" d="M143.3,431c-40.639,0-73.7-33.061-73.7-73.7V281c0-5.522,4.478-10,10-10H207    c5.523,0,10,4.478,10,10v76.3C217,397.939,183.939,431,143.3,431z M89.6,291v66.3c0,29.61,24.09,53.7,53.7,53.7    c29.61,0,53.7-24.09,53.7-53.7V291H89.6z"/><path style="fill:#283954;" d="M452,401h-9.6V201c0-5.523-4.477-10-10-10h-9.846C417.425,85.347,331.496,1,226.601,1h-53.9    c-21.726,0-39.4,17.944-39.4,40v1.309C116.403,46.814,103.9,62.452,103.9,81v7.366c-43.697,16.946-73.5,60.676-73.5,108.875    v218.003C13.106,423.002,1,440.586,1,461c0,27.57,22.071,50,49.2,50c19.667,0,36.667-11.792,44.536-28.78l122.116-0.18    c21.697-0.027,39.349-17.972,39.349-40V196c0-49.865-30.996-91.729-73.501-107.822V81c0-18.549-12.502-34.186-29.4-38.691V41    c0-11.028,8.703-20,19.4-20h53.9c93.871,0,170.825,75.382,175.923,170H393.2c-5.522,0-10,4.477-10,10v200H373.6    c-5.523,0-10,4.478-10,10c0,27.57,22.071,50,49.2,50s49.2-22.43,49.2-50C462,405.478,457.522,401,452,401z M236.201,221H50.4    c0.063-23.062-0.148-24.492,0.211-30h185.462C236.295,195.409,236.162,196.377,236.201,221z M50.2,491C34.1,491,21,477.542,21,461    s13.1-30,29.2-30s29.2,13.458,29.2,30S66.301,491,50.2,491z M216.825,462.04L99.37,462.213    c0.661-28.186-21.641-51.096-48.97-51.208V241h185.801v201.04C236.201,453.055,227.51,462.026,216.825,462.04z M232.964,171    H54.025c11.449-40.895,47.879-70.351,90.027-70C187.047,101.352,222.466,131.378,232.964,171z M162.7,81v1.689    c-12.697-2.231-25.807-2.298-38.8,0.049V81c0-11.028,8.702-20,19.399-20C153.997,61,162.7,69.972,162.7,81z M403.2,211h19.2v190    h-19.2V211z M412.8,441c-12.69,0-23.515-8.359-27.532-20c19.896,0,35.152,0,55.064,0C436.315,432.641,425.49,441,412.8,441z"/><circle style="fill:#283954;" cx="50.2" cy="461" r="10"/></g></g><g id="Layer_1"/></svg>