<?xml version="1.0" ?><svg xmlns="http://www.w3.org/2000/svg" xmlns:xlink="http://www.w3.org/1999/xlink" version="1.1" viewBox="0 0 512 512" style="enable-background:new 0 0 512 512;" xml:space="preserve"><g id="_x30_5_x2C__lamp_x2C__ceiling_x2C__lights_x2C__ceiling_lamp_x2C__illumination"><g><path style="fill:#3A98FF;" d="M256,331c5.522,0,10-4.478,10-10V61c0-5.523-4.478-10-10-10c-5.523,0-10,4.477-10,10v260    C246,326.522,250.477,331,256,331z"/><path style="fill:#3A98FF;" d="M116,151c5.522,0,10-4.477,10-10V61c0-5.523-4.478-10-10-10s-10,4.477-10,10v80    C106,146.523,110.478,151,116,151z"/><path style="fill:#3A98FF;" d="M396,151c5.522,0,10-4.477,10-10V61c0-5.523-4.478-10-10-10s-10,4.477-10,10v80    C386,146.523,390.478,151,396,151z"/><path style="fill:#3A98FF;" d="M281,451c-5.522,0-10,4.478-10,10v15c0,8.272-6.728,15-15,15c-8.271,0-15-6.728-15-15v-15    c0-5.522-4.477-10-10-10s-10,4.478-10,10v15c0,19.299,15.701,35,35,35s35-15.701,35-35v-15C291,455.478,286.522,451,281,451z"/><path style="fill:#3A98FF;" d="M141,271c-5.523,0-10,4.478-10,10v15c0,8.272-6.729,15-15,15s-15-6.728-15-15v-15    c0-5.522-4.478-10-10-10s-10,4.478-10,10v15c0,19.299,15.701,35,35,35s35-15.701,35-35v-15C151,275.478,146.523,271,141,271z"/><path style="fill:#3A98FF;" d="M421,271c-5.522,0-10,4.478-10,10v15c0,8.272-6.728,15-15,15s-15-6.728-15-15v-15    c0-5.522-4.478-10-10-10s-10,4.478-10,10v15c0,19.299,15.701,35,35,35s35-15.701,35-35v-15C431,275.478,426.522,271,421,271z"/><path style="fill:#283954;" d="M471,1H41c-5.522,0-10,4.477-10,10v50c0,5.523,4.478,10,10,10h430c5.522,0,10-4.477,10-10V11    C481,5.477,476.522,1,471,1z M461,51H51V21h410V51z"/><path style="fill:#283954;" d="M306,367.322V321c0-5.522-4.478-10-10-10h-80c-5.523,0-10,4.478-10,10v46.322    c-21.194,15.472-35,40.487-35,68.678v25c0,5.522,4.477,10,10,10h150c5.522,0,10-4.478,10-10v-25    C341,407.809,327.194,382.794,306,367.322z M226,331h60v25.484c-19.089-7.226-40.451-7.4-60,0V331z M321,451H191v-15    c0-35.841,29.159-65,65-65s65,29.159,65,65V451z"/><path style="fill:#283954;" d="M201,281v-25c0-28.191-13.806-53.206-35-68.678V141c0-5.523-4.477-10-10-10H76    c-5.522,0-10,4.477-10,10v46.322C44.806,202.794,31,227.809,31,256v25c0,5.522,4.478,10,10,10h150    C196.523,291,201,286.522,201,281z M86,151h60v25.484c-19.089-7.226-40.451-7.4-60,0V151z M181,271H51v-15    c0-35.841,29.159-65,65-65s65,29.159,65,65V271z"/><path style="fill:#283954;" d="M446,187.322V141c0-5.523-4.478-10-10-10h-80c-5.522,0-10,4.477-10,10v46.322    c-21.194,15.472-35,40.487-35,68.678v25c0,5.522,4.478,10,10,10h150c5.522,0,10-4.478,10-10v-25    C481,227.809,467.194,202.794,446,187.322z M366,151h60v25.484c-19.089-7.226-40.451-7.4-60,0V151z M461,271H331v-15    c0-35.841,29.159-65,65-65s65,29.159,65,65V271z"/></g></g><g id="Layer_1"/></svg>