<?xml version="1.0" ?><svg xmlns="http://www.w3.org/2000/svg" xmlns:xlink="http://www.w3.org/1999/xlink" version="1.1" viewBox="0 0 512 512" style="enable-background:new 0 0 512 512;" xml:space="preserve"><g id="_x31_6_x2C__tap_x2C__faucet_x2C__water_tap_x2C__plumber_x2C__water"><g><path style="fill:#283954;" d="M451,141H201v-40c0-5.522-4.478-10-10-10c-5.523,0-10,4.478-10,10v40h-50v-40    c0-5.522-4.478-10-10-10c-5.523,0-10,4.478-10,10v40H91c-22.056,0-40,17.944-40,40v210H31c-5.523,0-10,4.478-10,10v100    c0,5.522,4.477,10,10,10h200c5.523,0,10-4.478,10-10V401c0-5.522-4.477-10-10-10h-20V251c0-11.028,8.972-20,20-20h140v40    c0,5.522,4.478,10,10,10h80c5.522,0,10-4.478,10-10v-40h10c5.522,0,10-4.477,10-10v-40C491,158.944,473.056,141,451,141z M41,491    v-40h180v40H41z M221,431H41v-20c106.145,0,75.452,0,180,0V431z M71,391v-30h120v30H71z M451,261h-60v-30h60V261z M471,211    c-10.581,0-227.366,0-240,0c-22.056,0-40,17.944-40,40v90H71V181c0-11.028,8.972-20,20-20h360c11.028,0,20,8.972,20,20V211z"/><path style="fill:#3A98FF;" d="M401,51V11c0-5.523-4.478-10-10-10H131c-22.056,0-40,17.944-40,40v60c0,5.522,4.477,10,10,10h110    c5.523,0,10-4.478,10-10V61h170C396.522,61,401,56.522,401,51z M381,41H211c-5.523,0-10,4.478-10,10v40h-90V41    c0-11.028,8.972-20,20-20h250V41z"/><path style="fill:#3A98FF;" d="M449.228,305.316c-3.972-5.751-12.484-5.75-16.455,0C426.226,314.794,411,338.216,411,351    c0,16.542,13.458,30,30,30s30-13.458,30-30C471,338.216,455.774,314.794,449.228,305.316z M441,361c-5.514,0-10-4.486-10-9.988    c0.081-3.058,4.241-11.771,10.002-21.478c5.756,9.696,9.913,18.406,9.998,21.475C450.996,356.519,446.512,361,441,361z"/><path style="fill:#3A98FF;" d="M402.772,405.316C396.226,414.794,381,438.216,381,451c0,16.542,13.458,30,30,30s30-13.458,30-30    c0-12.784-15.226-36.206-21.772-45.684C415.255,399.566,406.744,399.567,402.772,405.316z M411,461c-5.514,0-10-4.486-10-9.988    c0.081-3.058,4.241-11.771,10.002-21.478c5.756,9.696,9.913,18.406,9.998,21.475C420.996,456.519,416.512,461,411,461z"/></g></g><g id="Layer_1"/></svg>