<?xml version="1.0" ?><svg xmlns="http://www.w3.org/2000/svg" xmlns:xlink="http://www.w3.org/1999/xlink" version="1.1" viewBox="0 0 512 512" style="enable-background:new 0 0 512 512;" xml:space="preserve"><g id="_x30_8_x2C__frame_x2C__picture_frame_x2C__painting_x2C__picture_x2C__art"><g><path style="fill:#3A98FF;" d="M457.973,410.842l-110-107.01c-3.928-3.821-10.199-3.771-14.063,0.116l-47.778,48.04l-78.06-78.06    c-4.211-4.211-11.07-3.802-14.791,0.714l-140,170c-3.511,4.264-2.9,10.565,1.362,14.077c1.862,1.533,4.114,2.28,6.351,2.28    c2.885,0,5.748-1.242,7.726-3.643l132.998-161.498c6.236,6.236,153.053,153.054,162.211,162.212    c3.906,3.904,10.236,3.904,14.143,0c3.905-3.905,3.905-10.237,0-14.143l-77.798-77.798l40.842-41.067l102.911,100.113    c3.956,3.849,10.288,3.766,14.141-0.195C462.019,421.024,461.932,414.693,457.973,410.842z"/><path style="fill:#3A98FF;" d="M281,301c22.056,0,40-17.944,40-40s-17.944-40-40-40s-40,17.944-40,40S258.944,301,281,301z     M281,241c11.028,0,20,8.972,20,20c0,11.028-8.972,20-20,20s-20-8.972-20-20C261,249.971,269.972,241,281,241z"/><path style="fill:#283954;" d="M511,500.995v-359.99c0.003-5.529-4.507-10.005-10-10.005h-37.096L261.355,2.554    c-3.27-2.072-7.441-2.072-10.711,0L48.096,131H11c-5.426,0-10.003,4.432-10,10.005v359.99C0.997,506.448,5.442,511,11,511h490    C506.542,511,511.003,506.462,511,500.995z M460.976,151l0.014,0.001c0.005,0,0.01-0.001,0.016-0.001h15.851l-30,30H65.143l-30-30    H460.976z M71,441V201h370v240H71z M51,195.142v251.715l-30,30V165.142L51,195.142z M65.143,461h381.715l30,30H35.143L65.143,461z     M461,446.857V195.142l30-30v311.715L461,446.857z M256,22.841L426.558,131H85.442L256,22.841z"/></g></g><g id="Layer_1"/></svg>