<?xml version="1.0" ?><svg xmlns="http://www.w3.org/2000/svg" xmlns:xlink="http://www.w3.org/1999/xlink" version="1.1" viewBox="0 0 512 512" style="enable-background:new 0 0 512 512;" xml:space="preserve"><g id="_x31_2_x2C__clock_x2C__alarm_clock_x2C__timer_x2C__time_x2C__time_and_date"><g><path style="fill:#3A98FF;" d="M255.31,62.464c-99.252,0-180,80.748-180,180c0,99.252,80.748,180,180,180s180-80.748,180-180    C435.31,143.212,354.562,62.464,255.31,62.464z M265.31,402.142v-24.678c0-5.522-4.478-10-10-10c-5.522,0-10,4.478-10,10v24.678    c-80.275-4.976-144.703-69.404-149.678-149.678h24.678c5.522,0,10-4.477,10-10c0-5.522-4.478-10-10-10H95.631    c4.976-80.275,69.404-144.703,149.678-149.678v24.678c0,5.522,4.478,10,10,10c5.522,0,10-4.478,10-10V82.786    c80.275,4.976,144.703,69.404,149.678,149.678H390.31c-5.523,0-10,4.478-10,10c0,5.523,4.477,10,10,10h24.678    C410.012,332.739,345.584,397.167,265.31,402.142z"/><path style="fill:#3A98FF;" d="M330.31,232.464h-46.72c-3.018-8.509-9.771-15.262-18.28-18.28V150.69c0-5.523-4.478-10-10-10    c-5.522,0-10,4.477-10,10v63.495c-11.639,4.128-20,15.243-20,28.28c0,16.542,13.458,30,30,30c13.036,0,24.152-8.361,28.28-20    h46.72c5.522,0,10-4.477,10-10C340.31,236.942,335.832,232.464,330.31,232.464z M255.31,252.464c-5.514,0-10-4.486-10-10    s4.486-10,10-10c5.514,0,10,4.486,10,10S260.823,252.464,255.31,252.464z"/><path style="fill:#283954;" d="M484.481,27.648C446.563-10.268,381.912-7.715,347.959,38.535    c-58.078-26.419-125.871-26.65-184.193-0.506C130.908-6.624,66.261-11.039,27.568,27.654    c-41.158,41.158-32.998,109.846,16.5,140.32c-29.209,83.029-7.693,177.65,60.317,239.854l-43.115,43.116    c-13.633,13.645-13.633,35.849,0.007,49.502c13.646,13.63,35.85,13.631,49.499-0.004l53.368-53.367    c57.728,25.747,124.834,25.717,182.552-0.101l53.472,53.471c13.651,13.639,35.854,13.639,49.501-0.006    c13.634-13.646,13.634-35.85-0.003-49.499L406.4,407.672c45.955-42.118,72.794-100.895,72.794-165.208    c0-25.541-4.262-50.424-12.423-73.852C519.027,136.954,524.569,67.736,484.481,27.648z M41.711,41.796    c29.031-29.033,77.381-27.145,103.852,5.418c-40.557,22.878-73.995,58.64-93.851,101.878    C15.379,124.187,10.804,72.701,41.711,41.796z M96.638,486.295c-5.852,5.846-15.373,5.845-21.219,0.007    c-5.846-5.852-5.846-15.373-0.003-21.221l44.376-44.376c8.166,6.235,16.695,11.879,25.549,16.887L96.638,486.295z     M435.521,465.078c5.846,5.851,5.846,15.372,0.003,21.22c-5.845,5.847-15.366,5.847-21.217,0l-48.821-48.82    c8.846-5.016,17.367-10.67,25.524-16.912L435.521,465.078z M255.31,446.35c-112.423,0-203.885-91.463-203.885-203.886    S142.887,38.579,255.31,38.579s203.885,91.462,203.885,203.885S367.732,446.35,255.31,446.35z M459.2,149.731    C439.363,106.171,406,70.59,366.057,47.784c26.211-33.03,75.005-35.269,104.281-5.993    C500.75,72.203,497.471,124.393,459.2,149.731z"/></g></g><g id="Layer_1"/></svg>