<?xml version="1.0" ?><svg xmlns="http://www.w3.org/2000/svg" xmlns:xlink="http://www.w3.org/1999/xlink" version="1.1" viewBox="0 0 512 512" style="enable-background:new 0 0 512 512;" xml:space="preserve"><g id="_x34_1_x2C__wardrobe_x2C__locker_x2C__furniture_x2C__furniture_and_household_x2C__closet"><g><path style="fill:#3A98FF;" d="M131,221c-5.523,0-10,4.477-10,10v20c0,5.522,4.477,10,10,10c5.522,0,10-4.478,10-10v-20    C141,225.477,136.522,221,131,221z"/><path style="fill:#3A98FF;" d="M211,221c-5.523,0-10,4.477-10,10v20c0,5.522,4.477,10,10,10c5.523,0,10-4.478,10-10v-20    C221,225.477,216.523,221,211,221z"/><path style="fill:#3A98FF;" d="M396,351h-20c-5.522,0-10,4.478-10,10s4.478,10,10,10h20c5.522,0,10-4.478,10-10    S401.522,351,396,351z"/><path style="fill:#3A98FF;" d="M431,91h-90c-5.522,0-10,4.478-10,10v180c0,5.522,4.478,10,10,10h90c5.522,0,10-4.478,10-10V101    C441,95.478,436.522,91,431,91z M421,271h-70V111h70V271z"/><path style="fill:#283954;" d="M481,1H31C14.458,1,1,14.458,1,31v30c0,5.522,4.477,10,10,10h20c0,20.165,0,371.443,0,390    c0,5.522,4.477,10,10,10h30v30c0,5.522,4.477,10,10,10h40c4.589,0,8.589-3.123,9.701-7.574L138.808,471h234.385l8.106,32.426    c1.112,4.451,5.112,7.574,9.701,7.574h40c5.522,0,10-4.478,10-10v-30h30c5.522,0,10-4.478,10-10c0-15.754,0-369.758,0-390h20    c5.522,0,10-4.478,10-10V31C511,14.458,497.542,1,481,1z M291,71c0,7.19,0,313.272,0,320H181V71H291z M461,391H311v-60h150V391z     M161,391H51V71h110V391z M113.192,491H91v-20h27.192L113.192,491z M421,491h-22.192l-5-20H421V491z M461,451H51v-40    c5.544,0,398.774,0,410,0V451z M461,311H311V71h150V311z M491,51c-17.822,0-448.017,0-470,0V31c0-5.514,4.486-10,10-10h450    c5.514,0,10,4.486,10,10V51z"/></g></g><g id="Layer_1"/></svg>