<?xml version="1.0" ?><svg xmlns="http://www.w3.org/2000/svg" xmlns:xlink="http://www.w3.org/1999/xlink" version="1.1" viewBox="0 0 512 512" style="enable-background:new 0 0 512 512;" xml:space="preserve"><g id="_x33_5_x2C__door_x2C__room_x2C__entrance_x2C__furniture_and_household_x2C__palace"><g><path style="fill:#3A98FF;" d="M221,271v-30c0-5.523-4.477-10-10-10s-10,4.477-10,10v30c0,5.522,4.477,10,10,10    S221,276.522,221,271z"/><path style="fill:#3A98FF;" d="M311,271v-30c0-5.523-4.478-10-10-10s-10,4.477-10,10v30c0,5.522,4.478,10,10,10    S311,276.522,311,271z"/><path style="fill:#283954;" d="M441,411h-10V93.36l18.944-37.889c2.47-4.939,0.468-10.946-4.473-13.416    c-4.94-2.471-10.946-0.469-13.416,4.473L414.819,81H97.181L79.944,46.528c-2.471-4.94-8.481-6.943-13.416-4.473    c-4.94,2.47-6.942,8.477-4.473,13.416L81,93.36V411H71c-5.522,0-10,4.478-10,10v40c0,5.522,4.478,10,10,10s10-4.478,10-10v-30    c17.385,0,333.172,0,350,0v30c0,5.522,4.478,10,10,10s10-4.478,10-10v-40C451,415.478,446.522,411,441,411z M266,101h95v310h-95    V101z M246,411h-95V101h95V411z M101,101h30v310h-30V101z M381,411V101h30v310H381z"/><path style="fill:#3A98FF;" d="M471,1H41c-5.522,0-10,4.477-10,10v40c0,5.522,4.478,10,10,10h430c5.522,0,10-4.478,10-10V11    C481,5.477,476.522,1,471,1z M461,41H51V21h410V41z"/><path style="fill:#3A98FF;" d="M471,451H41c-5.522,0-10,4.478-10,10v40c0,5.522,4.478,10,10,10h430c5.522,0,10-4.478,10-10v-40    C481,455.478,476.522,451,471,451z M461,491H51v-20h410V491z"/></g></g><g id="Layer_1"/></svg>