<?xml version="1.0" ?><svg xmlns="http://www.w3.org/2000/svg" xmlns:xlink="http://www.w3.org/1999/xlink" version="1.1" viewBox="0 0 512 512" style="enable-background:new 0 0 512 512;" xml:space="preserve"><g id="_x32_2_x2C__mailbox_x2C__postbox_x2C__letterbox_x2C__box_x2C__mail"><g><path style="fill:#3A98FF;" d="M321,371c-5.522,0-10,4.478-10,10v110h-20V381c0-5.522-4.478-10-10-10s-10,4.478-10,10v120    c0,5.522,4.478,10,10,10h40c5.522,0,10-4.478,10-10V381C331,375.478,326.522,371,321,371z"/><path style="fill:#3A98FF;" d="M451,171H351c-5.522,0-10,4.477-10,10v50c0,5.523,4.478,10,10,10h100c5.522,0,10-4.477,10-10v-50    C461,175.477,456.522,171,451,171z M441,221h-80v-30h80V221z"/><path style="fill:#3A98FF;" d="M101,131c-33.084,0-60,26.916-60,60v140c0,5.522,4.478,10,10,10s10-4.478,10-10V191    c0-22.056,17.944-40,40-40s40,17.944,40,40v140c0,5.522,4.477,10,10,10s10-4.478,10-10V191C161,157.916,134.084,131,101,131z"/><path style="fill:#283954;" d="M441,91H281V71h70c5.522,0,10-4.478,10-10V11c0-5.523-4.478-10-10-10h-80c-5.522,0-10,4.477-10,10    c0,25.479,0,65.514,0,80H101C45.859,91,1,135.859,1,191v140c0,5.522,4.477,10,10,10c9.44,0,210.316,0,220,0v40    c0,5.522,4.477,10,10,10h120c5.522,0,10-4.478,10-10v-40h130c5.522,0,10-4.478,10-10V161C511,122.401,479.599,91,441,91z M341,51    h-60V21h60V51z M261,111v51.266c-17.233,4.452-30,20.13-30,38.734c0,22.056,17.944,40,40,40s40-17.944,40-40    c0-18.604-12.767-34.282-30-38.734V111h160c27.57,0,50,22.43,50,50v110H201v-80c0-32.676-15.755-61.741-40.066-80H261z M271,181    c11.028,0,20,8.972,20,20s-8.972,20-20,20s-20-8.972-20-20S259.972,181,271,181z M21,321V191c0-44.112,35.888-80,80-80    s80,35.888,80,80v130C176.486,321,25.512,321,21,321z M351,371H251v-30h100V371z M201,321v-30h290v30    C431.552,321,256.803,321,201,321z"/></g></g><g id="Layer_1"/></svg>