<?xml version="1.0" ?><svg xmlns="http://www.w3.org/2000/svg" xmlns:xlink="http://www.w3.org/1999/xlink" version="1.1" viewBox="0 0 512 512" style="enable-background:new 0 0 512 512;" xml:space="preserve"><g id="_x32_7_x2C__curtain_x2C__curtains_x2C__window_x2C__furniture_and_household_x2C__decoration"><g><path style="fill:#3A98FF;" d="M160.999,104.37c-5.523,0-10,4.478-10,10V151c0,77.112-62.736,139.916-139.84,140h-0.16    c-5.523,0-10,4.478-10,10s4.477,10,10,10h0.171c88.13-0.096,159.829-71.871,159.829-160v-36.63    C170.999,108.848,166.522,104.37,160.999,104.37z"/><path style="fill:#3A98FF;" d="M500.999,311c5.522,0,10-4.478,10-10s-4.478-10-10-10h-0.159    c-77.108-0.084-139.841-62.888-139.841-140v-37.96c0-5.522-4.478-10-10-10c-5.523,0-10,4.478-10,10V151    c0,88.129,71.694,159.904,159.83,160H500.999z"/><path style="fill:#3A98FF;" d="M10.999,341c-5.523,0-10,4.478-10,10s4.477,10,10,10c44.112,0,80,35.888,80,80v50h-80    c-5.523,0-10,4.478-10,10s4.477,10,10,10h90c5.522,0,10-4.478,10-10v-60C110.999,385.859,66.14,341,10.999,341z"/><path style="fill:#3A98FF;" d="M500.999,361c5.522,0,10-4.478,10-10s-4.478-10-10-10c-55.141,0-100,44.859-100,100v60    c0,5.522,4.477,10,10,10h90c5.522,0,10-4.478,10-10s-4.478-10-10-10h-80v-50C420.999,396.888,456.887,361,500.999,361z"/><path style="fill:#283954;" d="M510.83,299.203V11c0-5.523-4.478-10-10-10H11.16c-5.523,0-10,4.477-10,10v288.267    c-0.099,0.564-0.16,1.141-0.16,1.733c0.063,52.857-0.146,49.985,0.16,51.733V501c0,5.522,4.477,10,10,10c5.522,0,10-4.478,10-10    V361h74.84c19.299,0,35-15.701,35-35s-15.701-35-35-35H21.16V117.994c28.988,15.139,63.49,4.313,80.271-23.641    c11.246,18.735,31.201,30.507,52.578,30.507c21.883,0,41.401-11.933,52.557-30.585c10.976,18.355,30.452,30.585,52.604,30.585    c22.13,0,41.588-12.208,52.566-30.537c8.131,13.63,21.001,24.008,36.566,28.346c25.747,7.213,53.842-3.606,68.594-28.317    c15.708,26.294,46.663,37.03,73.934,26.531V291h-74.83c-19.299,0-35,15.701-35,35s15.701,35,35,35h74.83v140    c0,5.522,4.478,10,10,10c5.522,0,10-4.478,10-10V352.797c0.106-0.584,0.17-1.183,0.17-1.797    C510.934,298.561,511.154,300.984,510.83,299.203z M95.999,311c8.271,0,15,6.728,15,15s-6.729,15-15,15H21.16v-30H95.999z     M469.48,104.86c-22.951,0-42.021-19.814-42.021-45c0-13.352-21.12-13.341-21.12,0c0,24.789-18.732,45-42.02,45    c-23.367,0-42.021-20.271-42.021-45c0-13.351-21.109-13.348-21.109,0c0,24.813-18.851,45-42.021,45    c-23.176,0-42.03-20.187-42.03-45c0-13.351-21.109-13.348-21.109,0c0,24.277-18.359,45-42.021,45c-23.655,0-42.02-20.475-42.02-45    c0-13.341-21.115-13.347-21.115,0c0,24.561-18.404,45-42.02,45c-10.332,0-20.036-3.946-27.695-11.165V21h469.67v77.596    C484.212,102.788,476.992,104.86,469.48,104.86z M415.999,341c-8.272,0-15-6.728-15-15s6.728-15,15-15h74.83v30H415.999z"/></g></g><g id="Layer_1"/></svg>